<svg width="76" height="76" viewBox="0 0 76 76" fill="none" xmlns="http://www.w3.org/2000/svg">
<path d="M65.3125 7.125C64.9976 7.125 64.6955 7.25011 64.4728 7.47281C64.2501 7.69551 64.125 7.99756 64.125 8.3125V14.25H11.875V8.3125C11.875 7.99756 11.7499 7.69551 11.5272 7.47281C11.3045 7.25011 11.0024 7.125 10.6875 7.125C8.48366 7.12751 6.3708 8.0041 4.81245 9.56245C3.2541 11.1208 2.37751 13.2337 2.375 15.4375V60.8119C2.37814 62.9494 3.22866 64.9984 4.7401 66.5099C6.25155 68.0213 8.30062 68.8719 10.4381 68.875H65.5619C67.7002 68.8719 69.75 68.0207 71.2616 66.5082C72.7732 64.9957 73.6231 62.9455 73.625 60.8071V15.4375C73.6225 13.2337 72.7459 11.1208 71.1876 9.56245C69.6292 8.0041 67.5163 7.12751 65.3125 7.125ZM4.75 15.4375C4.7515 14.0692 5.2248 12.7433 6.09009 11.6833C6.95537 10.6233 8.1597 9.89416 9.5 9.61875V52.3331C7.69426 52.5944 6.02489 53.4433 4.75 54.7485V15.4375ZM71.25 60.8119C71.2469 62.3195 70.6466 63.7645 69.5805 64.8305C68.5145 65.8966 67.0695 66.4969 65.5619 66.5H10.4381C8.92968 66.4969 7.48399 65.8959 6.41781 64.8288C5.35162 63.7618 4.75188 62.3156 4.75 60.8071V60.5625C4.75189 58.9884 5.37805 57.4792 6.49114 56.3661C7.60423 55.253 9.11336 54.6269 10.6875 54.625C11.0024 54.625 11.3045 54.4999 11.5272 54.2772C11.7499 54.0545 11.875 53.7524 11.875 53.4375V16.625H64.125V53.4375C64.125 53.7524 64.2501 54.0545 64.4728 54.2772C64.6955 54.4999 64.9976 54.625 65.3125 54.625C66.8866 54.6269 68.3958 55.253 69.5089 56.3661C70.6219 57.4792 71.2481 58.9884 71.25 60.5625V60.8119ZM71.25 54.7497C69.9751 53.4445 68.3057 52.5956 66.5 52.3343V9.61875C67.8403 9.89416 69.0446 10.6233 69.9099 11.6833C70.7752 12.7433 71.2485 14.0692 71.25 15.4375V54.7497Z" fill="black"/>
<path d="M60.5625 23.75H26.125C25.8101 23.75 25.508 23.8751 25.2853 24.0978C25.0626 24.3205 24.9375 24.6226 24.9375 24.9375V33.25H15.4375C15.1226 33.25 14.8205 33.3751 14.5978 33.5978C14.3751 33.8205 14.25 34.1226 14.25 34.4375V58.1875C14.25 58.5024 14.3751 58.8045 14.5978 59.0272C14.8205 59.2499 15.1226 59.375 15.4375 59.375H43.9375C44.2524 59.375 44.5545 59.2499 44.7772 59.0272C44.9999 58.8045 45.125 58.5024 45.125 58.1875V42.75H53.4375C53.7524 42.75 54.0545 42.6249 54.2772 42.4022C54.4999 42.1795 54.625 41.8774 54.625 41.5625C54.625 41.2476 54.4999 40.9455 54.2772 40.7228C54.0545 40.5001 53.7524 40.375 53.4375 40.375H32.0625C31.7476 40.375 31.4455 40.5001 31.2228 40.7228C31.0001 40.9455 30.875 41.2476 30.875 41.5625V47.5C30.875 47.8149 31.0001 48.117 31.2228 48.3397C31.4455 48.5624 31.7476 48.6875 32.0625 48.6875C32.3774 48.6875 32.6795 48.5624 32.9022 48.3397C33.1249 48.117 33.25 47.8149 33.25 47.5V42.75H42.75V57H33.25V52.25C33.25 51.9351 33.1249 51.633 32.9022 51.4103C32.6795 51.1876 32.3774 51.0625 32.0625 51.0625C31.7476 51.0625 31.4455 51.1876 31.2228 51.4103C31.0001 51.633 30.875 51.9351 30.875 52.25V57H16.625V47.5H26.125C26.4399 47.5 26.742 47.3749 26.9647 47.1522C27.1874 46.9295 27.3125 46.6274 27.3125 46.3125C27.3125 45.9976 27.1874 45.6955 26.9647 45.4728C26.742 45.2501 26.4399 45.125 26.125 45.125H16.625V35.625H26.125C26.4399 35.625 26.742 35.4999 26.9647 35.2772C27.1874 35.0545 27.3125 34.7524 27.3125 34.4375V26.125H42.75V35.625C42.75 35.9399 42.8751 36.242 43.0978 36.4647C43.3205 36.6874 43.6226 36.8125 43.9375 36.8125C44.2524 36.8125 44.5545 36.6874 44.7772 36.4647C44.9999 36.242 45.125 35.9399 45.125 35.625V26.125H51.1444C51.4109 28.2148 52.3637 30.157 53.8534 31.6466C55.343 33.1363 57.2852 34.0891 59.375 34.3556V57H49.875C49.5601 57 49.258 57.1251 49.0353 57.3478C48.8126 57.5705 48.6875 57.8726 48.6875 58.1875C48.6875 58.5024 48.8126 58.8045 49.0353 59.0272C49.258 59.2499 49.5601 59.375 49.875 59.375H60.5625C60.8774 59.375 61.1795 59.2499 61.4022 59.0272C61.6249 58.8045 61.75 58.5024 61.75 58.1875V24.9375C61.75 24.6226 61.6249 24.3205 61.4022 24.0978C61.1795 23.8751 60.8774 23.75 60.5625 23.75ZM53.5444 26.125H59.375V31.9556C57.9192 31.7068 56.5764 31.0123 55.5321 29.9679C54.4877 28.9236 53.7932 27.5808 53.5444 26.125Z" fill="black"/>
</svg>
