<svg width="76" height="76" viewBox="0 0 76 76" fill="none" xmlns="http://www.w3.org/2000/svg">
<path d="M60.5625 13.0625H49.875V2.375C49.875 1.95463 49.6517 1.56513 49.2896 1.35138C49.1043 1.24213 48.8953 1.18869 48.6875 1.18869V1.1875H15.4375C14.7808 1.1875 14.25 1.7195 14.25 2.375V66.5C14.25 67.1555 14.7808 67.6875 15.4375 67.6875H26.125V73.625C26.125 74.2805 26.6558 74.8125 27.3125 74.8125H60.5625C61.2192 74.8125 61.75 74.2805 61.75 73.625V14.25C61.75 13.5945 61.2192 13.0625 60.5625 13.0625ZM59.375 33.6003L28.5 44.6274V35.2747L59.375 24.2476V33.6003ZM26.7449 13.2276C26.3815 13.4306 26.125 13.8035 26.125 14.25V17.8125H21.375V10.6875H31.2799L26.7354 13.2121L26.7449 13.2276ZM59.375 21.7253L28.5 32.7524V15.4375H59.375V21.7253ZM31.8951 13.0625L47.5 4.39375V13.0625H31.8951ZM16.625 65.3125V3.5625H44.1049L35.5549 8.3125H20.1875C19.5308 8.3125 19 8.8445 19 9.5V19C19 19.6555 19.5308 20.1875 20.1875 20.1875H26.125V24.9375H21.375V27.3125H26.125V29.6875H21.375V32.0625H26.125V36.8125H21.375V39.1875H26.125V41.5625H21.375V43.9375H26.125V48.6875H21.375V51.0625H26.125V53.4375H21.375V55.8125H26.125V65.3125H16.625ZM28.5 72.4375V47.1497L59.375 36.1226V72.4375H28.5Z" fill="black"/>
<path d="M56.4965 40.5923C56.1806 40.3702 55.7769 40.3156 55.4135 40.4439L43.5385 44.6844C43.0659 44.8531 42.75 45.3007 42.75 45.8031V68.875C42.75 69.5305 43.2808 70.0625 43.9375 70.0625H55.8125C56.4692 70.0625 57 69.5305 57 68.875V41.5625C57 41.1766 56.8124 40.8144 56.4965 40.5923ZM54.625 67.6875H45.125V46.6402L54.625 43.2476V67.6875Z" fill="black"/>
<path d="M32.0625 24.9375H41.5625C42.2192 24.9375 42.75 24.4055 42.75 23.75V19C42.75 18.3445 42.2192 17.8125 41.5625 17.8125H32.0625C31.4058 17.8125 30.875 18.3445 30.875 19V23.75C30.875 24.4055 31.4058 24.9375 32.0625 24.9375ZM33.25 20.1875H40.375V22.5625H33.25V20.1875Z" fill="black"/>
</svg>
