<svg width="76" height="76" viewBox="0 0 76 76" fill="none" xmlns="http://www.w3.org/2000/svg">
<g clip-path="url(#clip0)">
<path d="M7.59189 29.3506C10.1489 29.3506 12.3971 28.0087 13.6735 25.9932C14.9498 28.0087 17.198 29.3506 19.755 29.3506C22.3121 29.3506 24.5602 28.0086 25.8366 25.9931C27.1129 28.0086 29.3611 29.3506 31.9183 29.3506C34.4754 29.3506 36.7235 28.0086 37.9999 25.9931C39.2762 28.0086 41.5244 29.3506 44.0815 29.3506C46.6387 29.3506 48.8868 28.0086 50.1632 25.9931C51.4394 28.0086 53.6877 29.3506 56.2448 29.3506C58.8018 29.3506 61.05 28.0087 62.3263 25.9932C63.6027 28.0087 65.8508 29.3506 68.4079 29.3506C72.3752 29.3506 75.6028 26.1231 75.6028 22.1558V18.9766C75.6028 18.8423 75.5736 18.6791 75.5117 18.5357V18.5356L70.3398 6.55298V3.79575C70.3398 1.70857 68.642 0.0107422 66.5548 0.0107422H9.44513C7.35795 0.0107422 5.66012 1.70857 5.66012 3.79575V6.55298L0.488262 18.5356C0.488262 18.5356 0.488262 18.5357 0.488113 18.5359C0.425621 18.6805 0.396973 18.843 0.396973 18.9768V22.156C0.397121 26.1231 3.62475 29.3506 7.59189 29.3506ZM7.59189 27.124C4.85232 27.124 2.62354 24.8953 2.62354 22.1558V20.0899H12.5601V22.1558C12.5602 24.8954 10.3316 27.124 7.59189 27.124ZM26.306 7.89574L24.8719 17.8633H15.1523L18.0205 7.89574H26.306ZM47.4439 7.89574L48.8782 17.8633H39.113V7.89574H47.4439ZM36.8865 17.8635H27.1215L28.5556 7.89589H36.8865V17.8635ZM19.755 27.124C17.0156 27.124 14.7868 24.8953 14.7868 22.1558V20.0899H24.7232V22.1558C24.7234 24.8954 22.4946 27.124 19.755 27.124ZM31.9181 27.124C29.1786 27.124 26.9498 24.8953 26.9498 22.1558V20.0899H36.8865V22.1558C36.8865 24.8954 34.6577 27.124 31.9181 27.124ZM44.0814 27.124C41.3418 27.124 39.113 24.8953 39.113 22.1558V20.0899H49.0496V22.1558C49.0496 24.8954 46.821 27.124 44.0814 27.124ZM56.2445 27.124C53.5049 27.124 51.2762 24.8953 51.2762 22.1558V20.0899H61.2126V22.1558C61.2127 24.8954 58.9839 27.124 56.2445 27.124ZM68.4076 27.124C65.6681 27.124 63.4393 24.8953 63.4393 22.1558V20.0899H73.3758V22.1558C73.3758 24.8954 71.1472 27.124 68.4076 27.124ZM63.1642 17.8635L62.3849 15.1548C62.2148 14.5639 61.5975 14.2226 61.0073 14.3926C60.4163 14.5627 60.0752 15.1794 60.2451 15.7702L60.8474 17.8635H51.1277L49.6937 7.89589H57.9793L58.8054 10.7664C58.9756 11.3582 59.5933 11.6981 60.1832 11.5285C60.7739 11.3583 61.115 10.7414 60.9452 10.1507L60.2964 7.89604H68.4943L72.7963 17.8636H63.1642V17.8635ZM7.88668 3.79575C7.88668 2.93645 8.58582 2.2373 9.44513 2.2373H66.5544C67.4137 2.2373 68.1128 2.93645 68.1128 3.79575V5.66918C65.3325 5.66918 12.5516 5.66918 7.88668 5.66918V3.79575ZM7.5055 7.89574H15.7034L12.8353 17.8633H3.20348L7.5055 7.89574Z" fill="black"/>
<path d="M42.805 69.7379H42.6444C42.6316 69.4324 42.7478 66.3507 42.0134 62.3463C41.619 60.1962 41.4189 57.9977 41.4189 55.812V50.642H57.2769C58.5207 50.642 59.5326 49.6301 59.5326 48.3864V45.3462C59.5326 44.1025 58.5207 43.0906 57.2769 43.0906H18.7229C17.4792 43.0906 16.4673 44.1025 16.4673 45.3462V48.3864C16.4673 49.6301 17.4792 50.642 18.7229 50.642H22.3867C23.0017 50.642 23.5 50.1437 23.5 49.5288C23.5 48.9138 23.0017 48.4155 22.3867 48.4155H18.7229C18.7069 48.4155 18.6938 48.4024 18.6938 48.3864V45.3462C18.6938 45.3302 18.7069 45.3171 18.7229 45.3171H57.2769C57.2929 45.3171 57.306 45.3302 57.306 45.3462V48.3864C57.306 48.4024 57.2929 48.4155 57.2769 48.4155H27.5912C26.9762 48.4155 26.4779 48.9138 26.4779 49.5288C26.4779 50.1437 26.9762 50.642 27.5912 50.642H34.581V55.812C34.581 57.9979 34.3809 60.1962 33.9865 62.3463C33.2551 66.3341 33.3675 69.4497 33.3555 69.7379H33.1949C30.646 69.7379 28.5724 71.8116 28.5724 74.3604C28.5724 75.2432 29.2907 75.9615 30.1734 75.9615H45.8263C46.7091 75.9615 47.4273 75.2432 47.4273 74.3604C47.4275 71.8116 45.3538 69.7379 42.805 69.7379ZM36.1765 62.7483C36.5951 60.4659 36.8075 58.1322 36.8075 55.812V50.642H39.1923V55.812C39.1923 58.1322 39.4047 60.4659 39.8233 62.7483C40.5139 66.5128 40.4061 69.456 40.4178 69.7381H35.582C35.5948 69.429 35.4812 66.5384 36.1765 62.7483ZM30.8818 73.7349C31.1576 72.7162 32.0902 71.9645 33.1949 71.9645H42.805C43.9097 71.9645 44.8423 72.716 45.1181 73.7349H30.8818Z" fill="black"/>
<path d="M27.374 57.9826C27.374 55.2375 25.1406 53.0041 22.3955 53.0041H6.43135L7.56437 37.6766C7.70287 35.8051 6.42408 34.0941 4.59013 33.6969C2.22864 33.1848 0.00207813 34.9858 0.00207813 37.3974V57.7571C0.00207813 57.7736 0.00385937 57.7895 0.00460156 57.8058C0.002375 57.8647 0 57.9234 0 57.9827C0 59.1345 0.915711 60.0739 2.05705 60.1176L0.698992 73.7934C0.574305 74.9637 1.49195 75.9889 2.67277 75.9889H3.70856C4.64461 75.9889 5.44112 75.3511 5.64552 74.4378C5.64671 74.4326 5.6479 74.4274 5.64894 74.4222L8.63624 60.1219H19.0157L22.003 74.4222C22.0042 74.4274 22.0054 74.4326 22.0065 74.4378C22.2109 75.3511 23.0074 75.9889 23.9434 75.9889H24.9792C26.1663 75.9889 27.0769 74.9542 26.9539 73.8016L25.5923 60.0895C26.6016 59.9187 27.374 59.0402 27.374 57.9826ZM25.1461 57.8952C18.4006 57.8952 6.34422 57.8952 2.2279 57.8952C2.27436 56.4181 3.49051 55.2307 4.97859 55.2307H22.3955C23.8836 55.2307 25.0997 56.4181 25.1461 57.8952ZM4.1187 35.8731C4.87424 36.0368 5.4009 36.7416 5.3439 37.5126L4.1941 53.0665C3.4767 53.1805 2.80992 53.4484 2.22864 53.8352V37.3974C2.22864 36.3986 3.15177 35.6626 4.1187 35.8731ZM3.51203 73.7624H2.93966L4.29415 60.1217H6.36159L3.51203 73.7624ZM24.1396 73.7624L21.2902 60.1217H23.3578L24.7123 73.7624H24.1396Z" fill="black"/>
<path d="M71.412 33.697C69.5781 34.0943 68.2993 35.8051 68.4378 37.6766L69.571 53.0042H53.6016C50.8564 53.0042 48.623 55.2376 48.623 57.9828C48.623 59.0404 49.3954 59.9189 50.4052 60.0896L49.0443 73.7935C48.9196 74.9638 49.8374 75.989 51.0182 75.989H52.054C52.9901 75.989 53.7866 75.3512 53.991 74.4379C53.9922 74.4327 53.9934 74.4275 53.9944 74.4223L56.9817 60.122H67.361L70.3483 74.4223C70.3495 74.4276 70.3507 74.433 70.3518 74.4382C70.5566 75.3514 71.3531 75.989 72.2889 75.989H73.3247C74.5142 75.989 75.4219 74.9516 75.2992 73.8017L73.9404 60.1178C73.9433 60.1177 73.9465 60.1177 73.9496 60.1174C73.9785 60.1187 74.0075 60.1217 74.0364 60.1217C74.4167 60.1217 74.7942 60.0108 75.1219 59.7936C75.6722 59.4286 76.0008 58.8165 76.0008 58.1561V37.3974C76.0002 34.9819 73.7703 33.1859 71.412 33.697ZM71.8835 35.8731C72.8523 35.6626 73.7737 36.4 73.7737 37.3975V57.7372C72.734 57.1547 72.0444 56.0969 71.9437 54.9008L70.6583 37.5124C70.6013 36.7413 71.1279 36.0366 71.8835 35.8731ZM53.6016 55.2307H69.7426C69.8505 56.2057 70.1962 57.116 70.7319 57.8951C68.3919 57.8951 53.4752 57.8951 50.8509 57.8951C50.8973 56.418 52.1134 55.2307 53.6016 55.2307ZM51.8575 73.7623H51.285L52.6395 60.1217H54.707L51.8575 73.7623ZM72.4848 73.7623L69.6354 60.1217H71.703L73.0575 73.7623H72.4848Z" fill="black"/>
</g>
<defs>
<clipPath id="clip0">
<rect width="76" height="76" fill="white"/>
</clipPath>
</defs>
</svg>
