<svg width="76" height="76" viewBox="0 0 76 76" fill="none" xmlns="http://www.w3.org/2000/svg">
<path d="M62.0668 0H13.9334C10.4374 0.00411667 7.60421 2.83733 7.6001 6.33333V69.6667C7.60421 73.1627 10.4374 75.9959 13.9334 76H62.0668C65.5628 75.9959 68.396 73.1627 68.4001 69.6667V6.33333C68.396 2.83733 65.5628 0.00411667 62.0668 0ZM25.3334 2.53333H50.6668V5.06667H25.3334V2.53333ZM60.8001 7.6V20.2667H15.2001V7.6H60.8001ZM65.8668 69.6667C65.8668 71.7654 64.1655 73.4667 62.0668 73.4667H13.9334C11.8347 73.4667 10.1334 71.7654 10.1334 69.6667V6.33333C10.1334 4.23462 11.8347 2.53333 13.9334 2.53333H22.8001V5.06667H13.9334C13.2339 5.06667 12.6668 5.63382 12.6668 6.33333V21.5333C12.6668 22.2328 13.2339 22.8 13.9334 22.8H62.0668C62.7663 22.8 63.3334 22.2328 63.3334 21.5333V6.33333C63.3334 5.63382 62.7663 5.06667 62.0668 5.06667H53.2001V2.53333H62.0668C64.1655 2.53333 65.8668 4.23462 65.8668 6.33333V69.6667Z" fill="black"/>
<path d="M37.9998 25.3334C34.5021 25.3334 31.6665 28.169 31.6665 31.6667C31.6706 35.1627 34.5038 37.9959 37.9998 38C41.4976 38 44.3332 35.1644 44.3332 31.6667C44.3332 28.169 41.4976 25.3334 37.9998 25.3334ZM37.9998 35.4667C35.9011 35.4667 34.1998 33.7654 34.1998 31.6667C34.1998 29.568 35.9011 27.8667 37.9998 27.8667C40.0985 27.8667 41.7998 29.568 41.7998 31.6667C41.7998 33.7654 40.0985 35.4667 37.9998 35.4667Z" fill="black"/>
<path d="M54.4666 25.3334C50.9689 25.3334 48.1333 28.169 48.1333 31.6667C48.1374 35.1627 50.9706 37.9959 54.4666 38C57.9644 38 60.8 35.1644 60.8 31.6667C60.8 28.169 57.9644 25.3334 54.4666 25.3334ZM54.4666 35.4667C52.3679 35.4667 50.6666 33.7654 50.6666 31.6667C50.6666 29.568 52.3679 27.8667 54.4666 27.8667C56.5653 27.8667 58.2666 29.568 58.2666 31.6667C58.2666 33.7654 56.5653 35.4667 54.4666 35.4667Z" fill="black"/>
<path d="M21.5335 25.3334C18.0358 25.3334 15.2002 28.169 15.2002 31.6667C15.2043 35.1627 18.0375 37.9959 21.5335 38C25.0313 38 27.8669 35.1644 27.8669 31.6667C27.8669 28.169 25.0313 25.3334 21.5335 25.3334ZM21.5335 35.4667C19.4348 35.4667 17.7335 33.7654 17.7335 31.6667C17.7335 29.568 19.4348 27.8667 21.5335 27.8667C23.6322 27.8667 25.3335 29.568 25.3335 31.6667C25.3335 33.7654 23.6322 35.4667 21.5335 35.4667Z" fill="black"/>
<path d="M37.9998 40.5333C34.5021 40.5333 31.6665 43.3689 31.6665 46.8667C31.6706 50.3627 34.5038 53.1959 37.9998 53.2C41.4976 53.2 44.3332 50.3644 44.3332 46.8667C44.3332 43.3689 41.4976 40.5333 37.9998 40.5333ZM37.9998 50.6667C35.9011 50.6667 34.1998 48.9654 34.1998 46.8667C34.1998 44.7679 35.9011 43.0667 37.9998 43.0667C40.0985 43.0667 41.7998 44.7679 41.7998 46.8667C41.7998 48.9654 40.0985 50.6667 37.9998 50.6667Z" fill="black"/>
<path d="M54.4666 40.5333C50.9689 40.5333 48.1333 43.3689 48.1333 46.8667C48.1374 50.3627 50.9706 53.1959 54.4666 53.2C57.9644 53.2 60.8 50.3644 60.8 46.8667C60.8 43.3689 57.9644 40.5333 54.4666 40.5333ZM54.4666 50.6667C52.3679 50.6667 50.6666 48.9654 50.6666 46.8667C50.6666 44.7679 52.3679 43.0667 54.4666 43.0667C56.5653 43.0667 58.2666 44.7679 58.2666 46.8667C58.2666 48.9654 56.5653 50.6667 54.4666 50.6667Z" fill="black"/>
<path d="M21.5335 40.5333C18.0358 40.5333 15.2002 43.3689 15.2002 46.8667C15.2043 50.3627 18.0375 53.1959 21.5335 53.2C25.0313 53.2 27.8669 50.3644 27.8669 46.8667C27.8669 43.3689 25.0313 40.5333 21.5335 40.5333ZM21.5335 50.6667C19.4348 50.6667 17.7335 48.9654 17.7335 46.8667C17.7335 44.7679 19.4348 43.0667 21.5335 43.0667C23.6322 43.0667 25.3335 44.7679 25.3335 46.8667C25.3335 48.9654 23.6322 50.6667 21.5335 50.6667Z" fill="black"/>
<path d="M37.9998 55.7333C34.5021 55.7333 31.6665 58.5689 31.6665 62.0666C31.6706 65.5626 34.5038 68.3958 37.9998 68.3999C41.4976 68.3999 44.3332 65.5644 44.3332 62.0666C44.3332 58.5689 41.4976 55.7333 37.9998 55.7333ZM37.9998 65.8666C35.9011 65.8666 34.1998 64.1653 34.1998 62.0666C34.1998 59.9679 35.9011 58.2666 37.9998 58.2666C40.0985 58.2666 41.7998 59.9679 41.7998 62.0666C41.7998 64.1653 40.0985 65.8666 37.9998 65.8666Z" fill="black"/>
<path d="M21.5335 55.7333C18.0358 55.7333 15.2002 58.5689 15.2002 62.0666C15.2043 65.5626 18.0375 68.3958 21.5335 68.3999C25.0313 68.3999 27.8669 65.5644 27.8669 62.0666C27.8669 58.5689 25.0313 55.7333 21.5335 55.7333ZM21.5335 65.8666C19.4348 65.8666 17.7335 64.1653 17.7335 62.0666C17.7335 59.9679 19.4348 58.2666 21.5335 58.2666C23.6322 58.2666 25.3335 59.9679 25.3335 62.0666C25.3335 64.1653 23.6322 65.8666 21.5335 65.8666Z" fill="black"/>
<path d="M59.5333 55.7333H49.4C48.7005 55.7333 48.1333 56.3004 48.1333 56.9999V69.6666C48.1333 70.3661 48.7005 70.9333 49.4 70.9333H59.5333C60.2328 70.9333 60.8 70.3661 60.8 69.6666V56.9999C60.8 56.3004 60.2328 55.7333 59.5333 55.7333ZM58.2666 68.3999H50.6666V58.2666H58.2666V68.3999Z" fill="black"/>
<path d="M53.1998 15.2H50.6665V17.7333H53.1998V15.2Z" fill="black"/>
<path d="M58.2667 15.2H55.7334V17.7333H58.2667V15.2Z" fill="black"/>
<path d="M22.8001 12.6666V10.1333H20.2667V12.6666H17.7334V15.2H20.2667V17.7333H22.8001V15.2H25.3334V12.6666H22.8001Z" fill="black"/>
<path d="M55.7335 64.6H54.4669C53.7673 64.6 53.2002 65.1671 53.2002 65.8666C53.2002 66.5662 53.7673 67.1333 54.4669 67.1333H55.7335C56.433 67.1333 57.0002 66.5662 57.0002 65.8666C57.0002 65.1671 56.433 64.6 55.7335 64.6Z" fill="black"/>
</svg>
