<svg width="76" height="76" viewBox="0 0 76 76" fill="none" xmlns="http://www.w3.org/2000/svg">
<path d="M67.6875 28.5H39.1875C38.2427 28.5 37.3365 28.1247 36.6684 27.4566C36.0003 26.7885 35.625 25.8823 35.625 24.9375V3.5625C35.625 2.61767 36.0003 1.71153 36.6684 1.04343C37.3365 0.375334 38.2427 0 39.1875 0L67.6875 0C68.6323 0 69.5385 0.375334 70.2066 1.04343C70.8747 1.71153 71.25 2.61767 71.25 3.5625V24.9375C71.25 25.8823 70.8747 26.7885 70.2066 27.4566C69.5385 28.1247 68.6323 28.5 67.6875 28.5ZM39.1875 2.375C38.8726 2.375 38.5705 2.50011 38.3478 2.72281C38.1251 2.94551 38 3.24756 38 3.5625V24.9375C38 25.2524 38.1251 25.5545 38.3478 25.7772C38.5705 25.9999 38.8726 26.125 39.1875 26.125H67.6875C68.0024 26.125 68.3045 25.9999 68.5272 25.7772C68.7499 25.5545 68.875 25.2524 68.875 24.9375V3.5625C68.875 3.24756 68.7499 2.94551 68.5272 2.72281C68.3045 2.50011 68.0024 2.375 67.6875 2.375H39.1875Z" fill="black"/>
<path d="M58.1875 35.625H48.6875C48.3726 35.625 48.0705 35.4999 47.8478 35.2772C47.6251 35.0545 47.5 34.7524 47.5 34.4375V27.3125C47.5 26.9976 47.6251 26.6955 47.8478 26.4728C48.0705 26.2501 48.3726 26.125 48.6875 26.125H58.1875C58.5024 26.125 58.8045 26.2501 59.0272 26.4728C59.2499 26.6955 59.375 26.9976 59.375 27.3125V34.4375C59.375 34.7524 59.2499 35.0545 59.0272 35.2772C58.8045 35.4999 58.5024 35.625 58.1875 35.625ZM49.875 33.25H57V28.5H49.875V33.25Z" fill="black"/>
<path d="M70.0625 76H5.9375C4.36336 75.9981 2.85422 75.372 1.74114 74.2589C0.628047 73.1458 0.00188558 71.6366 0 70.0625L0 61.0066C0.000581735 60.6625 0.0219959 60.3186 0.064125 59.9771L3.31194 33.9958C3.41961 33.1341 3.8383 32.3414 4.48929 31.7668C5.14029 31.1921 5.97877 30.875 6.84712 30.875H9.5V33.25H6.84712C6.55754 33.2498 6.27785 33.3554 6.06069 33.547C5.84352 33.7386 5.70385 34.0029 5.66794 34.2902L2.42013 60.2692C2.39016 60.5139 2.37509 60.7601 2.375 61.0066V70.0625C2.375 71.0073 2.75033 71.9135 3.41843 72.5816C4.08653 73.2497 4.99267 73.625 5.9375 73.625H70.0625C71.0073 73.625 71.9135 73.2497 72.5816 72.5816C73.2497 71.9135 73.625 71.0073 73.625 70.0625V61.0066C73.6248 60.7593 73.6098 60.5123 73.5799 60.2668L70.3321 34.2902C70.2962 34.0029 70.1565 33.7386 69.9393 33.547C69.7221 33.3554 69.4425 33.2498 69.1529 33.25H60.5625V30.875H69.1529C70.0212 30.875 70.8597 31.1921 71.5107 31.7668C72.1617 32.3414 72.5804 33.1341 72.6881 33.9958L75.9359 59.9747C75.9779 60.3171 75.9993 60.6617 76 61.0066V70.0625C75.9981 71.6366 75.3719 73.1458 74.2589 74.2589C73.1458 75.372 71.6366 75.9981 70.0625 76Z" fill="black"/>
<path d="M33.25 30.875H46.3125V33.25H33.25V30.875Z" fill="black"/>
<path d="M34.4375 41.5625H8.3125C7.99756 41.5625 7.69551 41.4374 7.47281 41.2147C7.25011 40.992 7.125 40.6899 7.125 40.375V36.8125C7.125 36.4976 7.25011 36.1955 7.47281 35.9728C7.69551 35.7501 7.99756 35.625 8.3125 35.625H11.875V38H9.5V39.1875H33.25V38H30.875V35.625H34.4375C34.7524 35.625 35.0545 35.7501 35.2772 35.9728C35.4999 36.1955 35.625 36.4976 35.625 36.8125V40.375C35.625 40.6899 35.4999 40.992 35.2772 41.2147C35.0545 41.4374 34.7524 41.5625 34.4375 41.5625Z" fill="black"/>
<path d="M66.5002 55.8125H40.3752C40.2106 55.8131 40.0477 55.7794 39.8968 55.7137C39.7459 55.6479 39.6103 55.5515 39.4986 55.4306C39.387 55.3097 39.3017 55.1669 39.2481 55.0112C39.1946 54.8556 39.174 54.6905 39.1877 54.5264L40.3752 40.2764C40.4 39.9789 40.5359 39.7016 40.756 39.4998C40.9761 39.298 41.2641 39.1865 41.5627 39.1875H65.3127C65.6113 39.1865 65.8993 39.298 66.1194 39.4998C66.3394 39.7016 66.4754 39.9789 66.5002 40.2764L67.6877 54.5264C67.7013 54.6905 67.6808 54.8556 67.6272 55.0112C67.5737 55.1669 67.4884 55.3097 67.3767 55.4306C67.2651 55.5515 67.1295 55.6479 66.9786 55.7137C66.8277 55.7794 66.6648 55.8131 66.5002 55.8125ZM41.666 53.4375H65.2094L64.2202 41.5625H42.6552L41.666 53.4375Z" fill="black"/>
<path d="M58.1875 40.375H60.5625V54.625H58.1875V40.375Z" fill="black"/>
<path d="M46.3125 40.375H48.6875V54.625H46.3125V40.375Z" fill="black"/>
<path d="M52.25 40.375H54.625V54.625H52.25V40.375Z" fill="black"/>
<path d="M40.375 48.6875H66.5V51.0625H40.375V48.6875Z" fill="black"/>
<path d="M40.375 43.9375H66.5V46.3125H40.375V43.9375Z" fill="black"/>
<path d="M30.875 41.5622H11.875C11.5601 41.5622 11.258 41.4371 11.0353 41.2144C10.8126 40.9917 10.6875 40.6897 10.6875 40.3747V16.6247C10.6876 16.3899 10.7572 16.1604 10.8877 15.9651C11.0182 15.7699 11.2036 15.6177 11.4206 15.5279C11.6376 15.438 11.8763 15.4145 12.1066 15.4603C12.3369 15.5061 12.5485 15.6192 12.7146 15.7852L14.25 17.3206L15.7854 15.7852C16.0081 15.5626 16.3101 15.4375 16.625 15.4375C16.9399 15.4375 17.2419 15.5626 17.4646 15.7852L19 17.3206L20.5354 15.7852C20.7581 15.5626 21.0601 15.4375 21.375 15.4375C21.6899 15.4375 21.9919 15.5626 22.2146 15.7852L23.75 17.3206L25.2854 15.7852C25.5081 15.5626 25.8101 15.4375 26.125 15.4375C26.4399 15.4375 26.7419 15.5626 26.9646 15.7852L28.5 17.3206L30.0354 15.7852C30.2015 15.6192 30.4131 15.5061 30.6434 15.4603C30.8737 15.4145 31.1124 15.438 31.3294 15.5279C31.5464 15.6177 31.7318 15.7699 31.8623 15.9651C31.9928 16.1604 32.0625 16.3899 32.0625 16.6247V40.3747C32.0625 40.6897 31.9374 40.9917 31.7147 41.2144C31.492 41.4371 31.1899 41.5622 30.875 41.5622ZM13.0625 39.1872H29.6875V19.4914L29.3396 19.8393C29.1169 20.0619 28.8149 20.187 28.5 20.187C28.1851 20.187 27.8831 20.0619 27.6604 19.8393L26.125 18.3039L24.5896 19.8393C24.3669 20.0619 24.0649 20.187 23.75 20.187C23.4351 20.187 23.1331 20.0619 22.9104 19.8393L21.375 18.3039L19.8396 19.8393C19.6169 20.0619 19.3149 20.187 19 20.187C18.6851 20.187 18.3831 20.0619 18.1604 19.8393L16.625 18.3039L15.0896 19.8393C14.8669 20.0619 14.5649 20.187 14.25 20.187C13.9351 20.187 13.6331 20.0619 13.4104 19.8393L13.0625 19.4914V39.1872Z" fill="black"/>
<path d="M34.4375 45.125H8.3125C7.99756 45.125 7.69551 44.9999 7.47281 44.7772C7.25011 44.5545 7.125 44.2524 7.125 43.9375V40.375H9.5V42.75H33.25V40.375H35.625V43.9375C35.625 44.2524 35.4999 44.5545 35.2772 44.7772C35.0545 44.9999 34.7524 45.125 34.4375 45.125Z" fill="black"/>
<path d="M8.3125 59.375H72.4375V61.75H8.3125V59.375Z" fill="black"/>
<path d="M3.5625 59.375H5.9375V61.75H3.5625V59.375Z" fill="black"/>
<path d="M66.5 24.9375H40.375C40.0601 24.9375 39.758 24.8124 39.5353 24.5897C39.3126 24.367 39.1875 24.0649 39.1875 23.75V4.75C39.1875 4.43506 39.3126 4.13301 39.5353 3.91031C39.758 3.68761 40.0601 3.5625 40.375 3.5625H66.5C66.8149 3.5625 67.117 3.68761 67.3397 3.91031C67.5624 4.13301 67.6875 4.43506 67.6875 4.75V8.3125H65.3125V5.9375H41.5625V22.5625H65.3125V10.6875H67.6875V23.75C67.6875 24.0649 67.5624 24.367 67.3397 24.5897C67.117 24.8124 66.8149 24.9375 66.5 24.9375Z" fill="black"/>
<path d="M53.4375 71.25H22.5625C22.2476 71.25 21.9455 71.1249 21.7228 70.9022C21.5001 70.6795 21.375 70.3774 21.375 70.0625V65.3125C21.375 64.9976 21.5001 64.6955 21.7228 64.4728C21.9455 64.2501 22.2476 64.125 22.5625 64.125H53.4375C53.7524 64.125 54.0545 64.2501 54.2772 64.4728C54.4999 64.6955 54.625 64.9976 54.625 65.3125V70.0625C54.625 70.3774 54.4999 70.6795 54.2772 70.9022C54.0545 71.1249 53.7524 71.25 53.4375 71.25ZM23.75 68.875H52.25V66.5H23.75V68.875Z" fill="black"/>
<path d="M15.4375 21.375H17.8125V23.75H15.4375V21.375Z" fill="black"/>
<path d="M20.1875 21.375H22.5625V23.75H20.1875V21.375Z" fill="black"/>
<path d="M15.4375 24.9375H17.8125V27.3125H15.4375V24.9375Z" fill="black"/>
<path d="M20.1875 24.9375H22.5625V27.3125H20.1875V24.9375Z" fill="black"/>
<path d="M15.4375 29.6875H27.3125V32.0625H15.4375V29.6875Z" fill="black"/>
<path d="M15.4375 34.4375H27.3125V36.8125H15.4375V34.4375Z" fill="black"/>
<path d="M43.9375 8.3125H46.3125V10.6875H43.9375V8.3125Z" fill="black"/>
<path d="M48.6875 8.3125H51.0625V10.6875H48.6875V8.3125Z" fill="black"/>
<path d="M43.9375 11.875H46.3125V14.25H43.9375V11.875Z" fill="black"/>
<path d="M48.6875 11.875H51.0625V14.25H48.6875V11.875Z" fill="black"/>
</svg>
