<svg width="76" height="76" viewBox="0 0 76 76" fill="none" xmlns="http://www.w3.org/2000/svg">
<g clip-path="url(#clip0)">
<path d="M75.8601 18.0217C75.5985 17.049 74.9603 16.2198 74.0871 15.717C73.2134 15.2118 72.1745 15.0751 71.1999 15.3367C70.2266 15.5989 69.3973 16.2365 68.8946 17.1096L68.2613 18.2116C67.6597 17.8659 66.891 18.0694 66.5391 18.668L63.3223 24.1512L62.2204 23.5179C61.9285 23.3491 61.5809 23.3034 61.2557 23.3912C60.9298 23.4796 60.6527 23.6936 60.4852 23.9867C60.142 24.5921 60.351 25.3613 60.9539 25.7089L62.0559 26.3421L51.291 44.9969L48.6314 52.1021L47.3649 54.4699C46.6235 55.7599 46.7026 57.3633 47.5677 58.5735L44.7182 62.0686L43.9205 60.0682C43.5606 59.1764 42.7276 58.5655 41.7698 58.4907C40.8113 58.4152 39.893 58.8889 39.3989 59.7132L38.9431 60.4856L38.5127 55.4198C38.4138 54.2213 37.4856 53.2579 36.2921 53.1132C35.098 52.9691 33.9676 53.6846 33.5861 54.8249L30.4706 64.1711C30.253 64.8322 30.6092 65.5446 31.2684 65.7672C31.392 65.8247 31.525 65.8593 31.661 65.868C32.2052 65.8698 32.69 65.5229 32.8644 65.0072L35.9668 55.6609L36.4102 60.8022C36.5017 61.8992 37.2902 62.8113 38.3625 63.0599C39.4347 63.3085 40.5441 62.836 41.1087 61.8918L41.5774 61.1188L42.3628 63.1075C42.6961 63.9454 43.4499 64.5434 44.3422 64.6764C45.2346 64.8093 46.13 64.4575 46.694 63.7531L49.6449 60.0175C49.9714 60.1028 50.3078 60.1455 50.6454 60.1442C52.0028 60.1547 53.2631 59.4399 53.9507 58.2693L55.2171 56.1544L60.0424 50.2909L70.921 31.4079L72.023 32.0411C72.3167 32.2093 72.5307 32.487 72.6179 32.8141C72.7057 33.1388 72.6599 33.4851 72.4917 33.7763L67.4259 42.553C67.2348 42.8412 67.1699 43.1949 67.2466 43.5326C67.3233 43.8696 67.5341 44.1608 67.831 44.3383C68.1228 44.5078 68.4704 44.5535 68.7956 44.4657C69.1215 44.3773 69.3986 44.1633 69.5661 43.8702L74.6319 35.0935C75.1372 34.2197 75.2738 33.1808 75.0116 32.2062C74.7494 31.2329 74.1119 30.4037 73.2387 29.9009L72.1368 29.2677L75.3029 23.7838C75.6486 23.1822 75.4451 22.4141 74.8471 22.0616L75.4804 20.9597C75.9992 20.0723 76.1365 19.0124 75.8601 18.0217ZM71.0855 18.3761C71.2531 18.083 71.5314 17.8684 71.8585 17.7812C72.1838 17.7008 72.5276 17.7459 72.8207 17.908C73.1144 18.0755 73.3284 18.3538 73.4162 18.6803C73.4966 19.0056 73.4514 19.3494 73.2894 19.6425L72.6562 20.7445L70.4523 19.478L71.0855 18.3761ZM53.8239 53.7359L53.1907 53.3686L51.3164 52.279L53.1146 47.4667L57.1038 49.7714L53.8239 53.7359ZM50.0246 57.3955C49.4897 57.0226 49.3252 56.3053 49.6449 55.7364L50.2781 54.635L52.4814 55.9015L51.8482 56.9905C51.6707 57.2984 51.3727 57.5173 51.0257 57.5946C50.6788 57.6713 50.3158 57.5996 50.0246 57.3955ZM58.5478 47.6949L54.1659 45.162L64.2975 27.6086L68.6794 30.1415L58.5478 47.6949ZM69.9458 27.9505L65.564 25.4176L68.0969 21.0357L72.4787 23.5686L69.9458 27.9505Z" fill="black"/>
<path d="M19.9846 56.7624L15.5019 61.2333L12.8169 58.5483C12.3228 58.0573 11.5251 58.0573 11.031 58.5483C10.7911 58.7864 10.6562 59.1098 10.6562 59.4474C10.6562 59.785 10.7911 60.1091 11.031 60.3465L13.716 63.0316C14.1909 63.5028 14.8328 63.7668 15.5019 63.7662C16.1747 63.7699 16.8222 63.5059 17.3002 63.0316L21.7705 58.5483C22.2009 58.0455 22.1718 57.2967 21.7043 56.8292C21.2362 56.3611 20.4873 56.332 19.9846 56.7624Z" fill="black"/>
<path d="M5.06592 60.1689C5.06592 66.1147 9.8856 70.9338 15.8308 70.9338C21.7759 70.9338 26.5956 66.1147 26.5956 60.1689C26.5956 59.4695 26.0285 58.9025 25.3291 58.9025C24.6297 58.9025 24.0627 59.4695 24.0627 60.1689C24.0627 64.7153 20.3771 68.4009 15.8308 68.4009C11.2844 68.4009 7.59882 64.7153 7.59882 60.1689C7.59882 55.6226 11.2844 51.937 15.8308 51.937C17.6129 51.932 19.3475 52.5102 20.7698 53.5837C21.3294 54.0036 22.1234 53.8898 22.5427 53.3302C22.9626 52.7706 22.8494 51.9772 22.2898 51.5573C19.0278 49.111 14.6632 48.7177 11.0166 50.5407C7.3694 52.3643 5.06592 56.0919 5.06592 60.1689Z" fill="black"/>
<path d="M45.5921 10.1447C46.2915 10.1447 46.8586 9.57828 46.8586 8.87827C46.8586 8.17887 46.2915 7.61182 45.5921 7.61182H12.6644C11.965 7.61182 11.3979 8.17887 11.3979 8.87827V13.9441C11.3979 14.6441 11.965 15.2105 12.6644 15.2105H45.5921C46.2915 15.2105 46.8586 14.6441 46.8586 13.9441C46.8586 13.2447 46.2915 12.6776 45.5921 12.6776H13.9309V10.1447H45.5921Z" fill="black"/>
<path d="M16.4637 17.7433C15.7643 17.7433 15.1973 18.3103 15.1973 19.0097C15.1973 19.7097 15.7643 20.2762 16.4637 20.2762H41.7927C42.4921 20.2762 43.0592 19.7097 43.0592 19.0097C43.0592 18.3103 42.4921 17.7433 41.7927 17.7433H16.4637Z" fill="black"/>
<path d="M49.3915 26.6078H21.5296C20.8302 26.6078 20.2632 27.1748 20.2632 27.8742C20.2632 28.5742 20.8302 29.1407 21.5296 29.1407H49.3915C50.0909 29.1407 50.658 28.5742 50.658 27.8742C50.658 27.1748 50.0909 26.6078 49.3915 26.6078Z" fill="black"/>
<path d="M36.7272 35.4734C36.7272 34.774 36.1601 34.2069 35.4607 34.2069H10.1317C9.43229 34.2069 8.86523 34.774 8.86523 35.4734C8.86523 36.1734 9.43229 36.7398 10.1317 36.7398H35.4607C36.1601 36.7398 36.7272 36.1734 36.7272 35.4734Z" fill="black"/>
<path d="M49.3914 34.2069H40.5262C39.8268 34.2069 39.2598 34.774 39.2598 35.4734C39.2598 36.1734 39.8268 36.7398 40.5262 36.7398H49.3914C50.0908 36.7398 50.6578 36.1734 50.6578 35.4734C50.6578 34.774 50.0908 34.2069 49.3914 34.2069Z" fill="black"/>
<path d="M22.7962 43.0722C23.4956 43.0722 24.0626 42.5058 24.0626 41.8058C24.0626 41.1064 23.4956 40.5393 22.7962 40.5393H10.1317C9.43229 40.5393 8.86523 41.1064 8.86523 41.8058C8.86523 42.5058 9.43229 43.0722 10.1317 43.0722H22.7962Z" fill="black"/>
<path d="M27.8622 43.0722H36.7273C37.4267 43.0722 37.9938 42.5058 37.9938 41.8058C37.9938 41.1064 37.4267 40.5393 36.7273 40.5393H27.8622C27.1628 40.5393 26.5957 41.1064 26.5957 41.8058C26.5957 42.5058 27.1628 43.0722 27.8622 43.0722Z" fill="black"/>
<path d="M56.9903 58.2693C56.2909 58.2693 55.7238 58.8364 55.7238 59.5358V72.2003C55.7238 72.9003 55.1568 73.4667 54.4574 73.4667H3.79935C3.09996 73.4667 2.5329 72.9003 2.5329 72.2003V3.81193C2.5329 3.11253 3.09996 2.54548 3.79935 2.54548H54.4574C55.1568 2.54548 55.7238 3.11253 55.7238 3.81193V27.5962C55.7238 28.2956 56.2909 28.8627 56.9903 28.8627C57.6897 28.8627 58.2567 28.2956 58.2567 27.5962V3.81193C58.2567 1.71375 56.5556 0.0125732 54.4574 0.0125732H3.79935C1.70117 0.0125732 0 1.71375 0 3.81193V72.2003C0 74.2991 1.70117 75.9996 3.79935 75.9996H54.4574C56.5556 75.9996 58.2567 74.2991 58.2567 72.2003V59.5358C58.2567 58.8364 57.6897 58.2693 56.9903 58.2693Z" fill="black"/>
</g>
<defs>
<clipPath id="clip0">
<rect width="76" height="76" fill="white"/>
</clipPath>
</defs>
</svg>
