<svg width="90" height="90" viewBox="0 0 90 90" fill="none" xmlns="http://www.w3.org/2000/svg">
<g clip-path="url(#clip0)">
<path d="M88.6816 87.3631H87.3633V67.7301C87.3633 62.5863 84.3238 57.9155 79.6052 55.8239L72.6572 52.846C74.3479 52.3125 75.8753 51.3611 77.118 50.0415C78.9931 48.0508 80.0684 45.3496 80.0684 42.6304C80.0684 40.1319 79.1954 37.7736 77.5436 35.8099C75.4775 33.3566 74.3396 30.2386 74.3396 27.0298V20.7123C74.3396 15.179 72.1847 9.97801 68.2722 6.0674C64.3597 2.15451 59.1581 -0.000214393 53.6256 -0.000214393C42.2047 -0.000214393 32.9133 9.29123 32.9133 20.7121V26.824C32.914 30.1442 31.6092 33.3133 29.4889 35.868C26.8204 39.083 26.2659 43.4299 28.0422 47.2122C29.3606 50.0197 31.7385 52.0368 34.5853 52.8906L27.6859 55.8908C22.8454 57.9278 19.7176 62.6371 19.7176 67.8884V83.4082C19.7176 84.1362 20.3077 84.7265 21.0359 84.7265C21.7642 84.7265 22.3543 84.1362 22.3543 83.4082V67.8884C22.3543 63.701 24.8484 59.9454 28.723 58.315L37.3711 54.5544V62.49H33.3979C32.2782 62.49 31.2064 62.9674 30.4574 63.7999C29.7086 64.6324 29.3469 65.7485 29.465 66.8619L31.6382 87.3631H1.31836C0.590098 87.3631 0 87.9533 0 88.6814C0 89.4095 0.590098 89.9998 1.31836 89.9998H88.6816C89.4099 89.9998 90 89.4095 90 88.6814C90 87.9533 89.4099 87.3631 88.6816 87.3631ZM75.5264 37.5076C76.7728 38.9895 77.4316 40.7608 77.4316 42.6303C77.4316 44.6846 76.6178 46.7268 75.1987 48.2336C73.6961 49.8288 71.6319 50.7074 69.3863 50.7074H67.6682L65.4114 49.7401C63.44 48.8946 62.0914 47.0821 61.8158 44.9957C65.8835 42.8055 68.6551 38.507 68.6551 33.5722V23.6612C69.0409 23.6874 69.4264 23.7016 69.8108 23.7016C70.4449 23.7016 71.0764 23.6656 71.7031 23.5945V27.0297C71.7029 30.8589 73.061 34.5802 75.5264 37.5076ZM53.946 58.3203C49.2296 58.4038 44.5488 57.8062 40.0078 56.5467V53.4078L40.3891 53.242C40.3921 53.2408 40.3951 53.2394 40.3982 53.2381L42.7502 52.2154C45.3683 51.0773 47.2184 48.746 47.7793 46.0218C48.9273 46.3556 50.139 46.5381 51.3933 46.5381H55.6893C56.9484 46.5381 58.1646 46.3542 59.3165 46.0179C59.8959 48.7297 61.753 51.04 64.3723 52.1636L66.8825 53.2394L66.8872 53.2413L67.0732 53.3209V56.2876C62.8065 57.5588 58.3954 58.2426 53.946 58.3203ZM67.0729 59.0326V62.4902H40.0078V59.2769C44.2818 60.3975 48.67 60.9646 53.0879 60.9646C53.3892 60.9646 53.6906 60.962 53.9921 60.9567C58.42 60.8793 62.8117 60.2323 67.0729 59.0326ZM71.7029 20.936C68.0715 21.4266 63.978 20.4539 61.1578 18.2687C60.5825 17.8229 59.7544 17.9277 59.3082 18.5034C58.8623 19.0789 58.9674 19.907 59.5429 20.353C61.3867 21.7814 63.6105 22.7875 66.0183 23.2948V30.4722C65.3848 31.916 64.6796 33.1168 63.0896 34.4285C62.4203 34.9808 61.6876 35.4394 60.9029 35.8033C60.2622 34.5529 58.9609 33.6948 57.4622 33.6948H54.3727C52.2417 33.6948 50.5081 35.4285 50.5081 37.5593C50.5081 39.6901 52.2417 41.4239 54.3727 41.4239H57.4622C59.2555 41.4239 60.7672 40.1959 61.2012 38.5368C62.9648 37.8648 65.8411 35.4666 65.8411 35.4666C64.9483 40.2597 60.7373 43.9006 55.6894 43.9006H51.3932C45.6978 43.9006 41.0643 39.2672 41.0643 33.5717V23.381C45.5419 22.6791 49.7721 21.1638 53.6516 18.8692C59.5586 15.3752 63.3475 10.8095 65.6341 7.20225C69.5464 10.6868 71.772 15.6823 71.7029 20.936ZM58.6897 37.563C58.6877 38.2385 58.1379 38.7875 57.462 38.7875H54.3725C53.6954 38.7875 53.1446 38.2366 53.1446 37.5597C53.1446 36.8827 53.6955 36.3318 54.3725 36.3318H57.462C58.1377 36.3318 58.6874 36.8804 58.6897 37.5556V37.563ZM35.55 20.7121C35.55 10.7451 43.6586 2.6365 53.6256 2.6365C57.2001 2.6365 60.6159 3.66834 63.5347 5.58928C61.4304 8.96234 57.8886 13.2999 52.3092 16.6004C48.4815 18.8645 44.283 20.3099 39.8297 20.8967H39.7475H39.7457H39.744H35.5498L35.55 20.7121ZM30.4286 46.0914C29.0918 43.2441 29.5091 39.9719 31.5162 37.5539C34.0346 34.5197 35.5528 30.7706 35.55 26.824V23.5334H38.4275V33.5722C38.4275 38.5098 41.2026 42.8104 45.274 44.9994C45.0193 47.1016 43.6748 48.938 41.6987 49.7972L39.6054 50.7074H37.6945C34.5498 50.7074 31.7658 48.9387 30.4286 46.0914ZM76.3228 66.5841L74.1201 87.3631H34.2896L32.0869 66.5841C32.047 66.2074 32.1645 65.845 32.4178 65.5636C32.6711 65.282 33.0193 65.1269 33.3979 65.1269H75.0118C75.3905 65.1269 75.7387 65.282 75.992 65.5636C76.2453 65.845 76.3627 66.2074 76.3228 66.5841ZM84.7266 87.3631H76.7716L78.9448 66.8622C79.0629 65.7486 78.701 64.6326 77.9523 63.8001C77.2033 62.9676 76.1317 62.4902 75.0118 62.4902H69.7096V54.4512L78.5515 58.2409C82.3027 59.9038 84.7266 63.6284 84.7266 67.7301V87.3631ZM54.2048 71.2351C51.4424 71.2351 49.195 73.4825 49.195 76.2449C49.195 79.0073 51.4424 81.2547 54.2048 81.2547C56.9672 81.2547 59.2146 79.0073 59.2146 76.2449C59.2146 73.4825 56.9672 71.2351 54.2048 71.2351ZM54.2048 78.618C52.8963 78.618 51.8317 77.5534 51.8317 76.2449C51.8317 74.9364 52.8963 73.8719 54.2048 73.8719C55.5133 73.8719 56.5778 74.9364 56.5778 76.2449C56.5778 77.5534 55.5135 78.618 54.2048 78.618Z" fill="#0AA44F"/>
<path d="M20.5617 16.6063C21.2897 16.6063 21.88 16.016 21.88 15.2879C21.88 14.5598 21.2897 13.9695 20.5617 13.9695C19.8336 13.9695 19.2433 14.5598 19.2433 15.2879C19.2433 16.016 19.8334 16.6063 20.5617 16.6063ZM10.0148 16.6063C10.7429 16.6063 11.3331 16.016 11.3331 15.2879C11.3331 14.5598 10.7429 13.9695 10.0148 13.9695C9.2867 13.9695 8.69643 14.5598 8.69643 15.2879C8.69643 16.016 9.28652 16.6063 10.0148 16.6063ZM15.2882 16.6063C16.0163 16.6063 16.6066 16.016 16.6066 15.2879C16.6066 14.5598 16.0163 13.9695 15.2882 13.9695C14.5601 13.9695 13.9699 14.5598 13.9699 15.2879C13.9699 16.016 14.56 16.6063 15.2882 16.6063ZM14.9991 30.5726C15.0072 30.5728 15.0152 30.5728 15.0233 30.5728L26.9429 30.5758C27.7664 30.5758 28.4662 30.0423 28.6836 29.2481C28.9013 28.4536 28.571 27.6381 27.8622 27.2189L26.0494 26.1463C28.9631 23.2583 30.6019 19.318 30.5759 15.1896C30.5237 6.93355 23.7663 0.12044 15.5127 0.00161178C6.96006 -0.121259 0 6.79696 0 15.2883C0 23.431 6.70922 30.3963 14.9991 30.5726ZM6.40723 6.27771C8.83828 3.88146 12.0516 2.59034 15.4749 2.63798C22.3045 2.73624 27.896 8.37425 27.9392 15.2062C27.9626 18.8921 26.382 22.3974 23.6025 24.8228C23.1377 25.2282 22.8943 25.8365 22.9505 26.4502C23.0068 27.0635 23.3571 27.6168 23.8871 27.9303L23.9003 27.938L15.0363 27.9359C8.18402 27.8044 2.63672 22.1594 2.63672 15.2883C2.63672 11.8744 3.97582 8.67448 6.40723 6.27771Z" fill="#F9223F"/>
</g>
<defs>
<clipPath id="clip0">
<rect width="90" height="90" fill="white"/>
</clipPath>
</defs>
</svg>
