<svg width="69" height="66" viewBox="0 0 69 66" fill="none" xmlns="http://www.w3.org/2000/svg">
<g filter="url(#filter0_d)">
<path fill-rule="evenodd" clip-rule="evenodd" d="M46 23C46 25.8241 45.0995 28.4379 43.5699 30.5699L49 36H33C25.8203 36 20 30.1797 20 23C20 15.8203 25.8203 10 33 10C40.1797 10 46 15.8203 46 23ZM33 27C35.2091 27 37 25.2092 37 23C37 20.7908 35.2091 19 33 19C30.7909 19 29 20.7908 29 23C29 25.2092 30.7909 27 33 27Z" fill="#F9223F"/>
</g>
<defs>
<filter id="filter0_d" x="0" y="0" width="69" height="66" filterUnits="userSpaceOnUse" color-interpolation-filters="sRGB">
<feFlood flood-opacity="0" result="BackgroundImageFix"/>
<feColorMatrix in="SourceAlpha" type="matrix" values="0 0 0 0 0 0 0 0 0 0 0 0 0 0 0 0 0 0 127 0"/>
<feOffset dy="10"/>
<feGaussianBlur stdDeviation="10"/>
<feColorMatrix type="matrix" values="0 0 0 0 0.976471 0 0 0 0 0.133333 0 0 0 0 0.247059 0 0 0 0.3 0"/>
<feBlend mode="normal" in2="BackgroundImageFix" result="effect1_dropShadow"/>
<feBlend mode="normal" in="SourceGraphic" in2="effect1_dropShadow" result="shape"/>
</filter>
</defs>
</svg>
