<svg width="76" height="76" viewBox="0 0 76 76" fill="none" xmlns="http://www.w3.org/2000/svg">
<g clip-path="url(#clip0)">
<path d="M38.5259 63.8733C39.1696 63.8733 39.6914 63.3515 39.6914 62.7078C39.6914 62.0641 39.1696 61.5422 38.5259 61.5422C37.8822 61.5422 37.3604 62.0641 37.3604 62.7078C37.3604 63.3515 37.8822 63.8733 38.5259 63.8733Z" fill="black"/>
<path d="M38.5259 68.8755C39.1696 68.8755 39.6914 68.3537 39.6914 67.71C39.6914 67.0663 39.1696 66.5444 38.5259 66.5444C37.8822 66.5444 37.3604 67.0663 37.3604 67.71C37.3604 68.3537 37.8822 68.8755 38.5259 68.8755Z" fill="black"/>
<path d="M33.0028 13.2653C33.0028 13.8803 33.5012 14.3786 34.1161 14.3786C34.7309 14.3786 35.2293 13.8803 35.2293 13.2653C35.2293 9.87084 34.316 6.54406 34.2771 6.40394C34.1125 5.81153 33.4988 5.46478 32.9064 5.62924C32.314 5.79371 31.9671 6.4075 32.1317 6.99992C32.1405 7.03138 33.0028 10.1713 33.0028 13.2653Z" fill="black"/>
<path d="M41.9751 14.3787C42.5899 14.3787 43.0884 13.8804 43.0884 13.2654C43.0884 10.1941 43.9443 7.05494 43.9594 7.00017C44.1239 6.40776 43.7771 5.79397 43.1847 5.6295C42.5926 5.46503 41.9787 5.81163 41.814 6.40419C41.7752 6.54417 40.8618 9.87095 40.8618 13.2656C40.8618 13.8804 41.3603 14.3787 41.9751 14.3787Z" fill="black"/>
<path d="M37.5445 35.7834H38.5678C39.1826 35.7834 39.6811 35.2851 39.6811 34.6702C39.6811 34.1431 39.3149 33.7017 38.8231 33.5863L39.2405 30.6505C39.3271 30.0417 38.9037 29.4781 38.295 29.3916C37.6859 29.3052 37.1228 29.7284 37.0361 30.3371L36.4423 34.5136C36.3827 35.009 36.7143 35.7328 37.5445 35.7834Z" fill="black"/>
<path d="M38.3534 39.9739C39.3556 39.9739 40.4262 39.6065 41.4087 38.6238C41.8435 38.189 41.8435 37.4843 41.4087 37.0495C40.9739 36.6149 40.269 36.6147 39.8343 37.0496C39.0979 38.063 37.2645 37.7494 36.6481 37.0296C36.2049 36.6082 35.504 36.6235 35.0792 37.0648C34.6528 37.5077 34.6664 38.2125 35.1094 38.6388C35.84 39.342 37.0381 39.9739 38.3534 39.9739Z" fill="black"/>
<path d="M66.5618 73.3252L62.7248 54.5318C61.8821 50.3978 58.2083 47.3974 53.9894 47.3974H46.6858L45.5631 44.5917C48.974 42.8637 51.3227 39.5 51.774 35.7047C55.0141 35.2055 57.5029 32.3984 57.5029 29.0209C57.5029 27.6878 57.1149 26.3975 56.3807 25.29C56.0411 24.7775 55.3503 24.6372 54.8377 24.9773C54.3252 25.3169 54.1852 26.0077 54.5248 26.5203C55.0166 27.262 55.2764 28.1267 55.2764 29.021C55.2764 31.1374 53.8195 32.9194 51.8534 33.418V24.7793C51.8534 24.7784 51.8535 24.7773 51.8535 24.7765V16.3458C51.8535 15.5169 52.2854 14.7367 53.0085 14.2588C55.313 12.7359 56.6154 10.1784 56.4922 7.41699C56.3144 3.42921 53.0505 0.174274 49.0619 0.00698528C47.1699 -0.0730225 45.3195 0.536462 43.8516 1.72218C43.437 2.0572 42.8458 2.06403 42.4456 1.73866C41.067 0.617509 39.3278 8.72143e-06 37.5483 8.72143e-06C35.7671 8.72143e-06 34.0262 0.618696 32.6468 1.74207C32.247 2.06745 31.6561 2.06062 31.2417 1.7253C29.7748 0.538985 27.9248 -0.071835 26.0326 0.00683685C22.0469 0.171602 18.8537 3.29577 18.6047 7.27404C18.403 10.4981 20.2451 13.5491 23.1883 14.866C24.076 15.2634 24.6496 16.1462 24.6496 17.115L24.6491 22.3528C21.4489 22.8854 19.0011 25.6718 19.0011 29.0209C19.0011 32.3965 21.4867 35.2023 24.7264 35.7037C25.1534 39.3955 27.3346 42.6339 30.5985 44.4159L29.4891 47.1896C29.3063 47.2518 29.1267 47.3208 28.9508 47.3973H22.0099C17.791 47.3973 14.1172 50.3977 13.2746 54.5313L9.43754 73.3252C9.3032 73.9841 9.46989 74.6607 9.89502 75.1812C10.3198 75.7015 10.9489 75.9999 11.6209 75.9999H64.3786C65.0505 75.9999 65.6796 75.7015 66.1044 75.1812C66.5296 74.661 66.6963 73.9844 66.5618 73.3252ZM26.9745 52.8825C27.3888 51.0468 28.8413 49.587 30.6749 49.1635L32.0881 48.8374L31.7689 50.252C31.3546 52.0878 29.9022 53.5475 28.0685 53.971L26.6554 54.2973L26.9745 52.8825ZM34.3448 45.8534C34.3448 45.8368 34.3584 45.8231 34.375 45.8231H36.2347C36.2513 45.8231 36.2649 45.8368 36.2649 45.8534V49.5329C36.2649 49.5495 36.2514 49.5631 36.2347 49.5631H34.375C34.3584 49.5631 34.3448 49.5495 34.3448 49.5329V45.8534ZM38.8409 50.252L38.5218 48.8374L39.9349 49.1635C41.7687 49.587 43.221 51.0468 43.6353 52.8825L43.9544 54.2973L42.5413 53.971C40.7075 53.5475 39.2551 52.0878 38.8409 50.252ZM41.6587 47.3976C40.9009 47.0839 39.5049 46.7272 38.4915 46.5824C38.4805 45.9748 38.5613 45.6184 38.2835 44.9129H43.2935L44.2877 47.3976H41.6587ZM24.098 12.8338C21.9646 11.8792 20.6808 9.75131 20.827 7.41298C21.0044 4.57649 23.2819 2.34888 26.1244 2.23132C27.4773 2.17922 28.7957 2.61088 29.8415 3.45652C31.0699 4.45016 32.8412 4.45536 34.0529 3.46855C35.0506 2.65615 36.2593 2.22657 37.5483 2.22657C38.836 2.22657 40.0437 2.65526 41.0409 3.46617C42.252 4.45135 44.0224 4.44645 45.2506 3.45459C46.2971 2.60939 47.617 2.17536 48.9685 2.23177C51.8133 2.35126 54.1411 4.67238 54.2679 7.51644C54.3558 9.48813 53.4262 11.3144 51.7811 12.4015C50.4324 13.2927 49.6271 14.7673 49.6271 16.3459V18.6194H34.0498C33.435 18.6194 32.9365 19.1177 32.9365 19.7327C32.9365 20.3477 33.435 20.846 34.0498 20.846H49.6268V23.6632H26.8763V20.846H28.7919C29.4067 20.846 29.9051 20.3477 29.9051 19.7327C29.9051 19.1177 29.4067 18.6194 28.7919 18.6194H26.8763V17.1152C26.8763 15.2696 25.7857 13.5892 24.098 12.8338ZM21.2278 29.021C21.2278 26.9045 22.6853 25.1226 24.6493 24.625V33.4186C22.6853 32.9208 21.2278 31.1382 21.2278 29.021ZM26.8758 34.3692V25.8897H49.6268V34.3692C49.6268 38.02 47.4335 41.3501 44.121 42.8119C43.8992 42.7307 32.3646 42.704 32.2159 42.7381C28.9583 41.2273 26.8758 37.9884 26.8758 34.3692ZM12.8256 67.8619L12.8434 67.7751H19.5038L19.3601 69.2461H12.5433L12.8256 67.8619ZM21.2728 49.6666L19.7213 65.5485H13.2979L15.4564 54.9765C16.0388 52.1188 18.4253 49.9846 21.2728 49.6666ZM11.6191 73.7708L12.0883 71.4727H19.1424L18.9176 73.7731L11.6191 73.7708ZM21.477 70.475C21.4772 70.4737 21.4773 70.4725 21.4774 70.4712L23.5142 49.6241H23.5375H26.1045C25.4853 50.4311 25.033 51.3714 24.8024 52.3925C24.5465 53.5045 24.0212 54.9194 25.0285 55.932C25.7706 56.875 27.4535 56.4477 28.5693 56.1404C30.9129 55.5992 32.827 53.8917 33.6615 51.6723C34.4412 51.832 35.9963 51.89 36.948 51.6723C37.1427 52.1899 37.3963 52.6793 37.7002 53.1328L33.6033 57.2296C33.0323 57.8005 32.7179 58.5595 32.7179 59.367V73.7734H21.1547L21.477 70.475ZM57.1738 73.7734L55.8229 59.9455C55.7632 59.3337 55.2198 58.8874 54.6066 58.9457C53.9948 59.0055 53.5471 59.55 53.6069 60.162L54.9367 73.7734H34.9444V59.3671C34.9444 59.1544 35.0273 58.9546 35.1776 58.8043L39.2107 54.7711C40.9802 55.9909 43.962 57.2859 45.581 55.9319C47.0639 54.3299 45.3719 50.8474 44.505 49.624H52.5773L53.0958 54.9308C53.1519 55.5058 53.6364 55.9359 54.2026 55.9359C54.7212 55.9412 55.3352 55.4551 55.3118 54.7142L54.8198 49.6768C57.6263 50.0303 59.9671 52.1498 60.5434 54.9767L64.3786 73.7734H57.1738Z" fill="black"/>
</g>
<defs>
<clipPath id="clip0">
<rect width="76" height="76" fill="white"/>
</clipPath>
</defs>
</svg>
