<svg width="76" height="76" viewBox="0 0 76 76" fill="none" xmlns="http://www.w3.org/2000/svg">
<g clip-path="url(#clip0)">
<path d="M73.3464 30.9054C72.5687 29.5993 71.8341 28.3655 71.4351 27.1364C71.0113 25.831 70.869 24.353 70.7184 22.7882C70.4777 20.2878 70.2289 17.7022 68.7439 15.6617C67.2435 13.6001 64.851 12.565 62.5373 11.564C61.1044 10.9441 59.7511 10.3585 58.6591 9.56377C57.5877 8.78403 56.6262 7.68796 55.6082 6.52763C53.9357 4.6211 52.2062 2.6497 49.7451 1.85066C47.3905 1.08606 44.8774 1.64314 42.447 2.18168C40.9557 2.51225 39.4136 2.85395 38 2.85395C36.5866 2.85395 35.0443 2.5121 33.553 2.18168C31.1226 1.64314 28.6094 1.08606 26.2547 1.85081C23.7938 2.64985 22.0643 4.62125 20.3918 6.52778C19.3739 7.68796 18.4123 8.78403 17.3409 9.56377C16.9639 9.83823 16.5337 10.1033 16.0258 10.3742C15.4832 10.6635 15.2781 11.3379 15.5674 11.8804C15.8567 12.423 16.531 12.628 17.0737 12.3387C17.6737 12.0186 18.1898 11.6998 18.6512 11.3639C19.9228 10.4384 21.0122 9.19668 22.0657 7.99597C23.6076 6.23847 25.064 4.57835 26.9426 3.96827C28.7207 3.39114 30.834 3.85946 33.0714 4.35539C34.6797 4.71179 36.343 5.08036 38.0003 5.08036C39.6576 5.08036 41.3207 4.71179 42.9292 4.35525C45.1669 3.85946 47.2805 3.39114 49.0578 3.96812C50.9365 4.57805 52.3929 6.23818 53.9349 7.99582C54.9884 9.19654 56.0776 10.4382 57.3494 11.3637C58.6408 12.3036 60.1724 12.9663 61.6537 13.6071C63.7869 14.5299 65.8016 15.4017 66.9441 16.9715C68.0712 18.5203 68.2807 20.6969 68.5026 23.0012C68.658 24.6164 68.8187 26.2864 69.3179 27.8237C69.794 29.2899 70.6278 30.6901 71.4339 32.0442C72.6367 34.0658 73.7734 35.9748 73.7734 38.0002C73.7734 40.0257 72.6367 41.9349 71.4332 43.9561C70.627 45.3102 69.7934 46.7103 69.3173 48.1764C68.8182 49.7136 68.6575 51.3837 68.502 52.999C68.2802 55.3032 68.0708 57.4798 66.9435 59.0286C65.801 60.5985 63.7863 61.4701 61.6531 62.393C60.1718 63.0338 58.6402 63.6964 57.3488 64.6363C56.0772 65.5618 54.9878 66.8035 53.9343 68.0042C52.3923 69.7617 50.936 71.4218 49.0574 72.0318C47.2796 72.609 45.1663 72.1406 42.9286 71.6446C41.3201 71.2882 39.657 70.9197 37.9999 70.9197C36.3425 70.9197 34.6795 71.2882 33.071 71.6446C30.8334 72.1406 28.7201 72.6089 26.9422 72.0318C25.0635 71.4218 23.6071 69.7617 22.0652 68.0041C21.0118 66.8034 19.9225 65.5617 18.6507 64.6362C17.3593 63.6963 15.8276 63.0336 14.3465 62.3928C12.2134 61.47 10.1985 60.5982 9.05602 59.0285C7.92894 57.4797 7.71949 55.3032 7.49758 52.9988C7.34216 51.3837 7.18141 49.7136 6.68236 48.1764C6.20632 46.7103 5.3727 45.31 4.56653 43.9561C3.3633 41.9349 2.22656 40.0257 2.22656 38.0002C2.22656 35.9748 3.3633 34.0658 4.56683 32.0445C5.37299 30.6904 6.20662 29.2902 6.68266 27.8241C7.18185 26.2869 7.34246 24.6167 7.49802 23.0015C7.71979 20.6972 7.92923 18.5206 9.05647 16.9718C9.70588 16.0796 10.6787 15.3408 12.2111 14.5765C12.7613 14.302 12.9849 13.6335 12.7104 13.0834C12.4359 12.5331 11.7674 12.3096 11.2173 12.584C9.95912 13.2116 8.37187 14.1287 7.25607 15.6619C5.7711 17.7023 5.52232 20.2878 5.28155 22.7884C5.13104 24.3532 4.98869 25.8312 4.5649 27.1367C4.1659 28.3658 3.43128 29.5994 2.65362 30.9055C1.349 33.0965 0 35.3622 0 38.0002C0 40.6384 1.349 42.9042 2.65362 45.0953C3.43128 46.4014 4.1659 47.635 4.5649 48.8641C4.98869 50.1694 5.13089 51.6474 5.28155 53.2121C5.52217 55.7127 5.7711 58.2983 7.25607 60.3387C8.75648 62.4004 11.149 63.4354 13.4627 64.4365C14.8956 65.0564 16.249 65.642 17.3409 66.4367C18.4123 67.2164 19.3738 68.3124 20.3918 69.4727C22.0643 71.3792 23.7939 73.3508 26.2549 74.1497C27.0842 74.4189 27.9328 74.5243 28.7908 74.5243C30.3691 74.5243 31.9785 74.1676 33.553 73.8188C35.0443 73.4882 36.5866 73.1465 38 73.1465C39.4136 73.1465 40.9557 73.4882 42.447 73.8188C44.8774 74.3573 47.3905 74.9144 49.7453 74.1497C52.2062 73.3506 53.9357 71.3792 55.6081 69.4727C56.6261 68.3124 57.5877 67.2165 58.6591 66.4366C59.751 65.642 61.1044 65.0564 62.5373 64.4364C64.851 63.4353 67.2435 62.4002 68.7439 60.3386C70.2289 58.2982 70.4777 55.7125 70.7184 53.2121C70.869 51.6473 71.0113 50.1693 71.4351 48.8639C71.8341 47.6349 72.5687 46.4012 73.3464 45.0951C74.651 42.904 76 40.6383 76 38.0002C76 35.3622 74.651 33.0965 73.3464 30.9054Z" fill="black"/>
<path d="M10.6953 29.1281C10.3791 30.102 9.7894 31.092 9.16522 32.1405C8.09305 33.9412 6.98438 35.8032 6.98438 37.9997C6.98438 40.1963 8.09305 42.0583 9.16522 43.8592C9.7894 44.9076 10.379 45.8978 10.6953 46.8715C11.0318 47.9079 11.146 49.0948 11.2669 50.3515C11.4647 52.4066 11.6692 54.5318 12.9069 56.2325C14.157 57.9503 16.1234 58.801 18.0249 59.6237C19.1754 60.1215 20.2621 60.5916 21.1284 61.222C21.978 61.8404 22.7499 62.7202 23.5671 63.6518C24.9417 65.2189 26.3632 66.8391 28.4134 67.5048C29.1102 67.731 29.8199 67.8193 30.5346 67.8193C31.8343 67.8193 33.1515 67.5274 34.4404 67.2418C35.6934 66.964 36.8769 66.7018 37.9996 66.7018C39.1224 66.7018 40.3059 66.964 41.5589 67.2418C43.5569 67.6846 45.6224 68.1425 47.5859 67.5048C49.636 66.8391 51.0574 65.2189 52.4321 63.6518C53.2492 62.7204 54.0213 61.8404 54.8708 61.222C55.737 60.5916 56.8237 60.1215 57.9743 59.6237C59.8758 58.8009 61.8421 57.9503 63.0923 56.2325C64.3299 54.5318 64.5343 52.4068 64.7322 50.3517C64.8532 49.095 64.9675 47.9079 65.304 46.8717C65.6202 45.8978 66.2098 44.9076 66.8341 43.8592C67.9062 42.0585 69.0149 40.1965 69.0149 37.9999C69.0149 35.8035 67.9062 33.9413 66.8341 32.1406C66.2099 31.0922 65.6203 30.102 65.304 29.1281C64.9675 28.0918 64.8532 26.9048 64.7322 25.6481C64.5345 23.593 64.3299 21.468 63.0923 19.7673C61.8421 18.0494 59.8758 17.1987 57.9743 16.3761C56.8237 15.8782 55.737 15.4081 54.8708 14.7777C54.0211 14.1593 53.2492 13.2795 52.4321 12.348C51.0574 10.7809 49.636 9.1607 47.5859 8.49496C45.6222 7.85742 43.5567 8.3152 41.5589 8.75799C40.3059 9.03572 39.1224 9.29801 37.9996 9.29801C36.8769 9.29801 35.6934 9.03572 34.4404 8.75799C32.4426 8.3152 30.3768 7.85742 28.4134 8.49496C26.3632 9.16055 24.9417 10.7809 23.5671 12.348C22.7499 13.2794 21.978 14.1593 21.1284 14.7777C20.2621 15.4081 19.1754 15.8784 18.0249 16.3761C16.1234 17.1987 14.157 18.0494 12.9069 19.7673C11.6692 21.468 11.4648 23.593 11.2669 25.6481C11.146 26.9046 11.0318 28.0915 10.6953 29.1281ZM13.4833 25.8613C13.6602 24.0227 13.8273 22.2863 14.7071 21.0773C15.5994 19.8513 17.207 19.1557 18.9091 18.4193C20.1204 17.8954 21.3729 17.3534 22.4386 16.5777C23.4885 15.8137 24.3795 14.7982 25.241 13.8161C26.4713 12.4137 27.6334 11.0891 29.1011 10.6126C30.4874 10.1627 32.1735 10.5361 33.9587 10.9317C35.2736 11.2231 36.6333 11.5244 37.9998 11.5244C39.3663 11.5244 40.726 11.2231 42.0409 10.9317C43.8258 10.536 45.5118 10.1622 46.8985 10.6126C48.3662 11.0891 49.5283 12.4137 50.7586 13.8161C51.6201 14.7982 52.511 15.8137 53.5609 16.5777C54.6267 17.3534 55.8792 17.8954 57.0905 18.4193C58.7925 19.1557 60.4001 19.8512 61.2925 21.0773C62.1722 22.2863 62.3394 24.0227 62.5163 25.8613C62.6434 27.1819 62.7749 28.5475 63.1867 29.8156C63.5799 31.0267 64.2618 32.1719 64.9213 33.2796C65.8817 34.8925 66.7888 36.4159 66.7888 37.9997C66.7888 39.5836 65.8817 41.1071 64.9213 42.7199C64.2618 43.8274 63.5799 44.9727 63.1867 46.1838C62.7749 47.4519 62.6434 48.8176 62.5163 50.1382C62.3394 51.9768 62.1722 53.7133 61.2925 54.9222C60.4002 56.1481 58.7926 56.8437 57.0905 57.5801C55.8792 58.1041 54.6267 58.646 53.5609 59.4218C52.511 60.1858 51.6201 61.2014 50.7586 62.1833C49.5283 63.5858 48.3662 64.9103 46.8985 65.3869C45.5121 65.8371 43.826 65.4633 42.0409 65.0678C40.726 64.7764 39.3663 64.475 37.9998 64.475C36.6333 64.475 35.2736 64.7764 33.9587 65.0678C32.1738 65.4633 30.4875 65.8371 29.1011 65.3869C27.6334 64.9104 26.4713 63.5858 25.241 62.1833C24.3795 61.2013 23.4885 60.1858 22.4386 59.4218C21.3729 58.646 20.1204 58.1043 18.9091 57.5801C17.2071 56.8437 15.5995 56.1483 14.7071 54.9222C13.8273 53.7132 13.6602 51.9766 13.4833 50.1382C13.3562 48.8176 13.2248 47.4521 12.8131 46.184C12.4199 44.9729 11.7379 43.8277 11.0784 42.72C10.118 41.1071 9.21094 39.5837 9.21094 37.9997C9.21094 36.4159 10.118 34.8925 11.0784 33.2796C11.7378 32.1719 12.4199 31.0266 12.8131 29.8156C13.2247 28.5475 13.3562 27.1819 13.4833 25.8613Z" fill="black"/>
<path d="M33.9898 52.7588C33.9248 52.7588 33.8599 52.7577 33.7948 52.7555C32.1489 52.6997 30.6013 51.9415 29.5487 50.675L24.0219 44.0251C22.7969 42.551 22.9994 40.355 24.4735 39.1298L26.0229 37.8421C27.4972 36.6171 29.6929 36.8195 30.9182 38.2937L33.7026 41.6439C33.8591 41.8321 34.0586 41.8661 34.1635 41.8697C34.2674 41.8732 34.4696 41.8529 34.6385 41.6755C34.6479 41.6657 34.6574 41.6561 34.6671 41.6466L48.8884 27.7712C49.5272 27.1088 50.3849 26.732 51.3057 26.7096C52.2325 26.6864 53.1154 27.0274 53.7877 27.6678L55.2464 29.0574C56.6343 30.3794 56.6877 32.584 55.3657 33.9719C55.358 33.9801 55.3501 33.9879 55.3423 33.9958L47.7852 41.4653C47.3477 41.8977 46.6428 41.8934 46.2108 41.4561C45.7786 41.0188 45.7827 40.3139 46.2199 39.8818L53.7632 32.4258C54.2285 31.9263 54.2061 31.1414 53.7106 30.6693L52.2518 29.2796C52.0101 29.0494 51.6931 28.9262 51.3595 28.9351C51.0259 28.9433 50.7153 29.0807 50.4851 29.3224C50.4756 29.3322 50.4661 29.3418 50.4565 29.3513L36.2346 43.2271C35.6746 43.8059 34.8905 44.1224 34.0879 44.0943C33.2747 44.0668 32.5101 43.6922 31.9901 43.0664L29.2057 39.7161C28.7653 39.1862 27.9757 39.1135 27.446 39.5538L25.8964 40.8414C25.3665 41.2819 25.2938 42.0713 25.734 42.6012L31.2608 49.251C31.9075 50.0293 32.8586 50.4952 33.8699 50.5294C34.8803 50.5644 35.8615 50.1632 36.5594 49.4305C36.5672 49.4223 36.575 49.4145 36.5829 49.4066L42.8245 43.2372C43.262 42.8048 43.9669 42.8091 44.399 43.2464C44.8313 43.6837 44.8271 44.3887 44.39 44.8208L38.1596 50.979C37.0696 52.1169 35.5601 52.7588 33.9898 52.7588Z" fill="black"/>
</g>
<defs>
<clipPath id="clip0">
<rect width="76" height="76" fill="white"/>
</clipPath>
</defs>
</svg>
