<svg width="76" height="76" viewBox="0 0 76 76" fill="none" xmlns="http://www.w3.org/2000/svg">
<g clip-path="url(#clip0)">
<path d="M71.3107 25.6028H68.7236V19.9282C68.7236 18.1047 67.2394 16.621 65.4149 16.621H58.0158C57.4008 16.621 56.9025 17.1195 56.9025 17.7343C56.9025 18.3491 57.4008 18.8476 58.0158 18.8476H65.4149C66.0116 18.8476 66.497 19.3324 66.497 19.9282V25.6028H9.3104H9.26112V19.9282C9.26112 19.3324 9.74591 18.8476 10.3417 18.8476H23.2472L22.5234 19.5714C21.9739 20.1209 21.8109 20.94 22.1084 21.658C22.4057 22.376 23.1001 22.84 23.8773 22.84H49.7885C50.919 22.84 52.0017 22.3586 52.759 21.5192C53.522 20.6734 53.8922 19.5364 53.7748 18.3995C53.1362 12.2187 50.7226 6.3961 46.7949 1.5612C46.079 0.679927 45.0183 0.140952 43.885 0.0824675C42.7518 0.0239832 41.6449 0.449998 40.844 1.25111L25.4737 16.621H10.3417C8.51819 16.621 7.03456 18.1047 7.03456 19.9282V25.6028H4.6894C2.10377 25.6028 0.000118329 27.7065 0.000118329 30.2921V37.0554C-0.0199207 39.9187 2.50811 42.2576 5.40709 42.0719C5.97665 42.0719 6.52379 41.9752 7.03441 41.7996V60.1385H3.67943C2.46907 60.1385 1.48434 61.1233 1.48434 62.3336V68.5699C1.48434 69.7803 2.46907 70.765 3.67943 70.765H7.03441V73.424C7.03441 74.6343 8.01914 75.619 9.2295 75.619H23.2469C24.4572 75.619 25.442 74.6343 25.442 73.424V70.765L49.6858 70.7651V74.8092C49.6858 75.424 50.1841 75.9224 50.799 75.9224C51.414 75.9224 51.9123 75.424 51.9123 74.8092V71.0684H53.0151C54.0048 71.0684 54.8101 71.8737 54.8101 72.8635V74.809C54.8101 75.4238 55.3084 75.9223 55.9234 75.9223C56.5384 75.9223 57.0367 75.4238 57.0367 74.809V72.8635C57.0367 72.095 56.8197 71.3763 56.4443 70.765H61.7295V74.5056C61.7295 75.1204 62.2278 75.6189 62.8428 75.6189C63.4578 75.6189 63.9561 75.1204 63.9561 74.5056V70.765H65.7548C67.3919 70.765 68.7239 69.4331 68.7239 67.7961V58.8648H73.1889C73.9832 58.8648 74.7308 58.5154 75.2401 57.906C75.7488 57.2976 75.9599 56.5012 75.8193 55.7215C75.1022 51.7297 72.3748 48.5144 68.7237 47.1077V41.7092C69.3019 41.9422 69.9324 42.0718 70.5931 42.0718C73.4209 42.2783 76.0113 39.9659 76.0001 37.0552V30.292C76 27.7065 73.8963 25.6028 71.3107 25.6028ZM32.6285 14.8601C32.6285 15.8309 31.8395 16.6206 30.8696 16.6206C30.2681 16.6206 29.7242 16.317 29.4051 15.8388L31.8481 13.3958C32.3253 13.7151 32.6285 14.2588 32.6285 14.8601ZM38.5007 18.8531C38.5007 17.8825 39.2904 17.0928 40.261 17.0928C41.2317 17.0928 42.0214 17.8825 42.0214 18.8531C42.0214 19.8199 41.2378 20.6066 40.2725 20.6128H40.2496C39.2843 20.6066 38.5007 19.8199 38.5007 18.8531ZM43.8375 20.613C44.0999 20.0819 44.2481 19.4845 44.2481 18.8532C44.2481 16.6547 42.4595 14.8664 40.2612 14.8664C38.0628 14.8664 36.2743 16.6549 36.2743 18.8532C36.2743 19.4847 36.4225 20.0819 36.6849 20.613H24.6309L27.8193 17.4247C28.5587 18.3036 29.6619 18.8472 30.8697 18.8472C33.0673 18.8472 34.8553 17.0586 34.8553 14.8601C34.8553 13.6527 34.312 12.5497 33.4338 11.8102L40.2887 4.95536C44.2451 9.27414 46.5181 14.7614 46.7742 20.6128H43.8375V20.613ZM43.7699 2.30606C44.2822 2.33248 44.7428 2.56656 45.0665 2.96512C48.7205 7.46306 50.9659 12.8794 51.5599 18.6284C51.7441 19.8862 50.3874 20.8563 49.0007 20.6134C48.7419 14.1672 46.238 8.12197 41.863 3.38074C42.3599 2.86181 42.8208 2.32001 43.7699 2.30606ZM65.5763 37.0554C65.5763 38.5938 64.3246 39.8454 62.7862 39.8454C61.226 40.0283 59.6024 38.7566 59.6058 37.0554V27.8294H65.5763V37.0554ZM57.3793 37.0554C57.3793 38.5938 56.1276 39.8454 54.5892 39.8454C53.0289 40.0283 51.4053 38.7567 51.4087 37.0554V27.8294H57.3793V37.0554ZM49.1823 37.0554C49.1823 38.5938 47.9306 39.8454 46.3922 39.8454C44.832 40.0283 43.2084 38.7566 43.2118 37.0554V27.8294H49.1823V37.0554ZM40.9853 37.0554C40.9853 38.5938 39.7336 39.8454 38.1952 39.8454C36.635 40.0283 35.0113 38.7566 35.0147 37.0554V27.8294H40.9853V37.0554ZM32.7881 37.0554C32.7881 38.5938 31.5365 39.8454 29.9981 39.8454C28.4379 40.0283 26.8143 38.7566 26.8177 37.0554V27.8294H32.7881V37.0554ZM24.5911 37.0554C24.5911 38.5938 23.3395 39.8454 21.8011 39.8454C20.2409 40.0283 18.6173 38.7566 18.6207 37.0554V27.8294H24.5911V37.0554ZM16.3941 37.0554C16.3941 38.5938 15.1425 39.8454 13.6041 39.8454C12.0439 40.0283 10.4203 38.7566 10.4237 37.0554V27.8294H16.3941V37.0554ZM5.0167 39.8454C3.4783 39.8454 2.22668 38.5938 2.22668 37.0554V30.2921C2.22668 28.9342 3.33135 27.8294 4.6894 27.8294H8.19712V37.0554C8.19712 38.5938 6.9455 39.8454 5.40709 39.8454H5.0167ZM3.71105 62.3651H7.03441V68.5383H3.71105V62.3651ZM23.2153 73.3923H9.26097V70.7648H23.2153V73.3923ZM22.1559 45.9736C24.2218 45.9736 25.9027 47.6544 25.9027 49.7205V51.3533H21.2632V45.9736H22.1559ZM25.9027 60.1385H21.2632V53.5798H25.9027V60.1385ZM19.0366 60.1385H14.3972V53.5798H19.0366V60.1385ZM14.3972 62.3651H19.0366V68.5191H14.3972V62.3651ZM21.2632 62.3651H25.9027V68.5191H21.2632V62.3651ZM19.0366 51.3533H14.3972V49.7205C14.3972 47.6545 16.0779 45.9736 18.144 45.9736H19.0367V51.3533H19.0366ZM65.7545 68.5384H63.9558V58.8648H66.497V67.7961C66.497 68.2055 66.1639 68.5384 65.7545 68.5384ZM52.3198 56.6382C52.2536 56.576 52.1271 56.7435 52.0268 56.2937C52.2099 55.1439 52.6052 54.0576 53.189 53.074C54.1586 51.3788 56.0776 49.7298 58.1452 49.0546C57.6668 51.0533 57.2672 53.8298 57.0714 56.6381H52.3198V56.6382ZM59.5692 46.4415C56.4449 46.8568 53.4893 48.6447 51.6445 51.3531H38.1797V49.7209C38.1797 47.6542 39.8603 45.9729 41.9262 45.9729H57.9827C58.6146 45.9729 59.2202 46.1318 59.7552 46.4191C59.6931 46.4266 59.629 46.4332 59.5692 46.4415ZM60.2971 49.6283C60.3833 49.2607 60.4728 48.9122 60.5649 48.5857C61.7205 48.5736 64.2105 48.5802 65.1054 48.5895C65.6964 50.688 66.1345 53.4844 66.3664 56.6382H59.3032C59.496 53.9995 59.8361 51.5952 60.2971 49.6283ZM73.6278 56.1157C73.6225 56.3354 73.6364 56.5299 73.1886 56.6384H68.5976C68.3932 53.7721 68.0216 51.1637 67.5193 49.043C70.6583 50.0889 73.0251 52.761 73.6278 56.1157ZM62.9139 46.3536C61.8082 44.7316 59.9757 43.7465 57.9827 43.7465H41.9262C38.6327 43.7465 35.9531 46.4266 35.9531 49.7211V61.8454C35.9531 62.4602 36.4515 62.9587 37.0664 62.9587H57.5702C58.1851 62.9587 58.6834 62.4602 58.6834 61.8454C58.6834 61.2306 58.1851 60.7321 57.5702 60.7321H38.1797V53.5797H50.4717C50.1756 54.336 49.9581 55.1265 49.8281 55.9434C49.7116 56.674 49.9203 57.416 50.4006 57.9791C50.8808 58.5419 51.5803 58.8646 52.3198 58.8646H58.1163H61.7294V68.5383H51.9122V65.4517C51.9122 64.8369 51.4139 64.3384 50.7989 64.3384C50.1839 64.3384 49.6856 64.8369 49.6856 65.4517V68.5384H33.2649V45.9792C33.2649 45.3644 32.7664 44.866 32.1516 44.866C31.5368 44.866 31.0383 45.3644 31.0383 45.9792V68.5383H28.1293V49.7203C28.1293 46.4266 25.4497 43.7469 22.1559 43.7469H18.1439C14.8502 43.7469 12.1705 46.4265 12.1705 49.7203V68.5383H9.26097C9.26097 68.5383 9.14548 40.0735 9.16196 40.0532C10.0612 41.2163 11.9385 42.1782 13.6041 42.0719C15.1796 42.0719 16.5869 41.3413 17.5074 40.2016C18.4066 41.3648 20.1355 42.1782 21.8011 42.0719C23.3766 42.0719 24.7841 41.3413 25.7044 40.2016C26.6036 41.3648 28.3325 42.1782 29.9981 42.0719C31.5736 42.0719 32.9811 41.3413 33.9014 40.2016C34.8006 41.3648 36.5296 42.1782 38.1952 42.0719C39.7708 42.0719 41.1781 41.3412 42.0985 40.2016C42.9978 41.3648 44.7266 42.1782 46.3922 42.0719C47.9678 42.0719 49.3751 41.3412 50.2955 40.2016C51.1948 41.3648 52.9238 42.1782 54.5894 42.0719C56.1649 42.0719 57.5722 41.3412 58.4927 40.2016C59.3919 41.3648 61.1208 42.1782 62.7864 42.0719C64.2553 42.0719 65.5789 41.4372 66.4972 40.4277V46.5007C66.3674 46.4789 64.6237 46.3636 62.9139 46.3536ZM73.7734 37.0554C73.7911 38.6582 72.274 40.014 70.593 39.8454C69.0546 39.8454 67.8028 38.5938 67.8028 37.0554V27.8294H71.3107C72.6686 27.8294 73.7734 28.9342 73.7734 30.2921V37.0554Z" fill="black"/>
<path d="M74.8871 64.335C74.2721 64.335 73.7738 64.8334 73.7738 65.4482V68.8384H72.671C70.4535 68.8384 68.6494 70.6425 68.6494 72.86V74.8056C68.6494 75.4204 69.1477 75.9189 69.7627 75.9189C70.3777 75.9189 70.876 75.4204 70.876 74.8056V72.86C70.876 71.8702 71.6812 71.065 72.671 71.065H73.7738V74.8057C73.7738 75.4206 74.2721 75.919 74.8871 75.919C75.502 75.919 76.0003 75.4206 76.0003 74.8057V65.4482C76.0003 64.8334 75.5019 64.335 74.8871 64.335Z" fill="black"/>
<path d="M39.1253 12.302C39.7656 12.302 40.2847 11.7829 40.2847 11.1426C40.2847 10.5023 39.7656 9.98315 39.1253 9.98315C38.4849 9.98315 37.9658 10.5023 37.9658 11.1426C37.9658 11.7829 38.4849 12.302 39.1253 12.302Z" fill="black"/>
</g>
<defs>
<clipPath id="clip0">
<rect width="76" height="76" fill="white"/>
</clipPath>
</defs>
</svg>
