<svg width="76" height="76" viewBox="0 0 76 76" fill="none" xmlns="http://www.w3.org/2000/svg">
<path d="M38.1457 5.93815C37.3248 5.93221 36.6554 6.59276 36.6495 7.41214C36.6435 8.23152 37.3026 8.90097 38.1234 8.90691C38.9428 8.91285 39.6123 8.25378 39.6182 7.4344C39.6241 6.61503 38.9651 5.94557 38.1457 5.93815Z" fill="black"/>
<path d="M38.0781 14.8446C32.3468 14.804 27.653 19.4276 27.6097 25.1572C27.5665 30.8864 32.1927 35.5824 37.9222 35.6256C37.9488 35.6258 37.9752 35.6259 38.0018 35.6259C43.6948 35.6259 48.3476 31.016 48.3907 25.3131C48.4338 19.5841 43.8078 14.8878 38.0781 14.8446ZM38.0015 32.6573C37.9828 32.6573 37.9632 32.6572 37.9445 32.657C33.8519 32.6261 30.5474 29.2717 30.5783 25.1795C30.609 21.1056 33.9322 17.8129 37.9988 17.8129C38.0175 17.8129 38.0371 17.8131 38.0558 17.8132C42.1484 17.8441 45.4529 21.1985 45.422 25.2908C45.3912 29.3647 42.0681 32.6573 38.0015 32.6573Z" fill="black"/>
<path d="M44.4764 7.06365C43.7042 6.78963 42.8553 7.19413 42.5813 7.96689C42.3074 8.73966 42.7119 9.58798 43.4845 9.862C50.0228 12.1793 54.3802 18.4064 54.3279 25.3573C54.3218 26.1769 54.9813 26.8465 55.8012 26.8528C55.8049 26.8528 55.8087 26.8528 55.8126 26.8528C56.6269 26.8528 57.2904 26.1955 57.2967 25.3795C57.3584 17.164 52.2063 9.80337 44.4764 7.06365Z" fill="black"/>
<path d="M47.1078 55.8782C56.9809 43.1697 63.151 36.5427 63.2342 25.4241C63.3387 11.4349 51.9859 0 37.9977 0C24.1728 0 12.8711 11.1964 12.766 25.0456C12.6811 36.4657 18.9658 43.0836 28.907 55.8761C19.0173 57.354 12.766 61.0675 12.766 65.6095C12.766 68.652 15.5783 71.3823 20.685 73.2971C25.333 75.0401 31.4824 76 38.0001 76C44.5179 76 50.6672 75.0401 55.3152 73.2971C60.4219 71.3821 63.2342 68.6519 63.2342 65.6094C63.2342 61.0698 56.9887 57.3573 47.1078 55.8782ZM15.7346 25.068C15.8272 12.8473 25.7985 2.96876 37.998 2.96876C50.342 2.96876 60.3577 13.0607 60.2656 25.402C60.1867 35.961 53.6432 42.4681 43.1966 56.0862C41.3333 58.514 39.6221 60.8095 38.0023 63.0549C36.3873 60.8081 34.7103 58.5538 32.819 56.0853C21.9406 41.897 15.6541 35.8817 15.7346 25.068ZM38.0001 73.0314C25.2566 73.0314 15.7346 69.1131 15.7346 65.6095C15.7346 63.0113 21.4269 59.729 30.9979 58.5924C33.1135 61.3683 34.9684 63.8903 36.7877 66.466C37.0655 66.8594 37.5171 67.0936 37.9988 67.0939C37.9992 67.0939 37.9997 67.0939 38.0001 67.0939C38.4813 67.0939 38.9327 66.8605 39.2111 66.4679C41.0131 63.9258 42.9187 61.3416 45.0163 58.594C54.5784 59.7318 60.2656 63.013 60.2656 65.6097C60.2655 69.1131 50.7436 73.0314 38.0001 73.0314Z" fill="black"/>
</svg>
