<svg width="76" height="76" viewBox="0 0 76 76" fill="none" xmlns="http://www.w3.org/2000/svg">
<g clip-path="url(#clip0)">
<path d="M73.9555 65.3988C75.3633 63.4088 76.0823 61.0124 75.9924 58.5469C75.8898 55.7191 74.7301 53.0582 72.7274 51.056L67.7605 46.0892C68.7833 42.329 69.0843 38.4557 68.6523 34.5638C68.5844 33.9533 68.0342 33.5137 67.423 33.5804C66.8119 33.6483 66.3718 34.1985 66.4396 34.8097C66.7928 37.9901 66.6171 41.1571 65.9224 44.2505L64.329 42.6571C63.5121 41.8402 62.4249 41.3902 61.2687 41.3902C60.1096 41.3902 59.0224 41.8402 58.2072 42.6577C56.521 44.3456 56.521 47.0917 58.2077 48.7784L62.3907 52.9596C61.2223 54.8574 59.8266 56.6253 58.2315 58.2216C51.2712 65.1819 41.2725 68.0446 31.7435 65.9178L33.3392 64.3221C34.1562 63.5045 34.6062 62.4185 34.6062 61.2628C34.6062 60.1043 34.1557 59.0172 33.3387 58.2019C31.6519 56.5157 28.9064 56.5157 27.2174 58.2019L23.0292 62.3895C21.1192 61.2165 19.3461 59.8185 17.751 58.2216C16.0712 56.5418 14.6089 54.6661 13.4017 52.6483C13.3901 52.6245 13.3814 52.5996 13.3674 52.5769C12.896 51.7779 12.4658 50.9615 12.0866 50.1457C11.5375 48.9762 11.0632 47.7539 10.6788 46.5136C10.6614 46.4579 10.6387 46.4052 10.6138 46.3542C9.52836 42.7957 9.14741 39.1074 9.48371 35.3878C9.53938 34.7755 9.08769 34.2345 8.47538 34.1788C7.86482 34.1226 7.32209 34.5748 7.26643 35.1871C6.91795 39.0326 7.28208 42.8479 8.3455 46.5385L3.55143 51.3326C1.55912 53.3243 0.400034 55.9701 0.286966 58.7817C0.188395 61.2327 0.889994 63.6193 2.2758 65.607L2.16447 65.7183C1.32719 66.5556 0.866221 67.6683 0.866221 68.8517C0.866221 70.0352 1.32719 71.1479 2.16447 71.9851L4.22868 74.0493C5.09205 74.9133 6.22679 75.3453 7.36152 75.3453C8.49626 75.3453 9.63041 74.9133 10.4944 74.0493L10.5941 73.9496C12.4838 75.2879 14.7214 75.9958 17.021 75.9958C17.7046 75.9958 18.394 75.9332 19.0805 75.8062C19.6853 75.6943 20.0848 75.1133 19.9729 74.5092C19.861 73.9044 19.2788 73.506 18.6758 73.6168C16.4029 74.0372 14.1027 73.5733 12.1997 72.3446L14.5445 69.9998C15.1197 69.4246 15.5169 68.7195 15.7094 67.9501C17.3538 69.0918 19.6349 68.9323 21.0989 67.4677L23.983 64.5841C23.9848 64.5824 23.9865 64.5807 23.9888 64.5783L28.791 59.7767C29.6115 58.9574 30.9457 58.9574 31.7656 59.7773C32.1616 60.1722 32.3796 60.6998 32.3796 61.2628C32.3796 61.8235 32.161 62.3512 31.7644 62.7478L28.7957 65.7166C28.791 65.7206 28.7875 65.7247 28.7835 65.7287L23.3655 71.1461C23.071 71.4407 22.755 71.7161 22.4256 71.9654C21.9351 72.3359 21.8382 73.0341 22.2093 73.5246C22.4279 73.8139 22.7608 73.9664 23.0976 73.9664C23.3319 73.9664 23.5679 73.8928 23.7685 73.7409C24.179 73.4307 24.5733 73.0874 24.9398 72.7204L29.9049 67.7564C32.5762 68.48 35.2921 68.8337 37.9884 68.8337C40.8858 68.8337 43.7583 68.4232 46.5229 67.6277L51.3373 72.4438C53.3296 74.4355 55.9754 75.5946 58.7876 75.7071C58.9389 75.7135 59.0897 75.7164 59.2404 75.7164C61.5313 75.7164 63.7486 75.0177 65.6134 73.7177L65.7259 73.8302C66.5892 74.6935 67.724 75.1255 68.8587 75.1255C69.9934 75.1255 71.1276 74.6935 71.9916 73.8302L74.0558 71.766C74.893 70.9287 75.354 69.816 75.354 68.6325C75.354 67.4491 74.893 66.3364 74.0558 65.4997L73.9555 65.3988ZM2.51121 58.8716C2.60166 56.6201 3.52998 54.502 5.1251 52.9069L9.13001 48.9025C9.65766 50.2993 10.2874 51.6579 11.0133 52.9637L8.80299 55.1734C8.00572 55.9695 7.56678 57.0295 7.56678 58.1573C7.56678 59.0056 7.81495 59.8156 8.27766 60.5038C7.52098 60.6906 6.8043 61.079 6.21403 61.6687L3.88078 64.002C2.91941 62.4817 2.43757 60.6987 2.51121 58.8716ZM12.9703 68.4255L9.7342 71.661C9.7342 71.6616 9.73362 71.6616 9.73304 71.6622L8.92011 72.4751C8.0608 73.3344 6.66224 73.3344 5.80235 72.4751L3.73814 70.4109C3.32182 69.9946 3.0922 69.4408 3.0922 68.8517C3.0922 68.2632 3.32182 67.7094 3.73814 67.2931L4.53425 66.497C4.53715 66.4941 4.54005 66.4918 4.54237 66.4889L7.78828 63.2436C8.21794 62.8139 8.78211 62.5988 9.34687 62.5988C9.90873 62.5988 10.47 62.8122 10.8991 63.2378L12.8711 65.2086L12.9703 65.3078C13.3866 65.7241 13.6156 66.2778 13.6156 66.8664C13.6162 67.4555 13.3866 68.0092 12.9703 68.4255ZM19.5247 65.8934C19.1484 66.2703 18.6474 66.4779 18.1151 66.4779C17.5828 66.4779 17.0819 66.2703 16.7055 65.8934L14.5555 63.744C14.5555 63.744 14.5445 63.7335 14.5445 63.7329L13.5831 62.7716L12.4803 61.6693C12.478 61.667 12.4751 61.6647 12.4728 61.6624L10.3772 59.5674C10.0003 59.1911 9.79276 58.6901 9.79276 58.1573C9.79276 57.625 10.0003 57.1246 10.3772 56.7483L12.2043 54.9212C13.2178 56.4595 14.3711 57.9108 15.6502 59.2531L15.078 59.8254C14.6431 60.2603 14.6431 60.9648 15.078 61.3997C15.2954 61.6171 15.5807 61.7256 15.8654 61.7256C16.1501 61.7256 16.4353 61.6171 16.6528 61.3997L17.2436 60.8088C18.5436 61.9923 19.9399 63.0609 21.4155 64.0031L19.5247 65.8934ZM59.7826 44.2308C60.1774 43.8348 60.7051 43.6168 61.2681 43.6168C61.8305 43.6168 62.3582 43.8354 62.7548 44.2314L71.1531 52.6303C74.1462 55.6234 74.5828 60.3189 72.3511 63.7944L70.0062 61.4496C69.4194 60.8633 68.708 60.4766 67.9565 60.2881C68.4464 59.5865 68.7114 58.7533 68.7114 57.8795C68.7114 56.7523 68.2725 55.693 67.4752 54.8957L59.782 47.2042C58.9627 46.3849 58.9627 45.0513 59.7826 44.2308ZM59.2509 60.3369L59.8307 60.9167C60.0481 61.1335 60.3334 61.2426 60.6181 61.2426C60.9028 61.2426 61.1881 61.1335 61.4055 60.9161C61.8398 60.4812 61.8398 59.7767 61.4049 59.3419L60.8054 58.7423C61.9917 57.44 63.0615 56.0449 64.0032 54.5727L65.901 56.4699C66.2779 56.8463 66.4849 57.3466 66.4849 57.8795C66.4849 58.4118 66.2779 58.9122 65.901 59.2891L63.7457 61.4443C63.744 61.4461 63.7417 61.4478 63.7399 61.4496L61.6757 63.5138C61.6734 63.5155 61.6717 63.5178 61.6699 63.5196L59.5732 65.6168C58.7957 66.3938 57.5311 66.3938 56.7529 65.6168L54.9131 63.7764C56.4445 62.7716 57.8975 61.6241 59.2509 60.3369ZM58.8763 73.4828C56.6248 73.3924 54.5067 72.4641 52.9115 70.8695L48.895 66.8524C49.6407 66.5718 50.3765 66.2622 51.0961 65.9253C51.7211 65.6336 52.3462 65.3147 52.9614 64.9744L55.1787 67.1911C56.6254 68.6372 58.8682 68.8117 60.5068 67.7164C60.6981 68.4911 61.0965 69.2019 61.6751 69.7806L64.0072 72.1121C62.4863 73.0735 60.7022 73.5553 58.8763 73.4828ZM72.4815 70.1911L70.4167 72.2553C69.558 73.1147 68.1594 73.1152 67.2995 72.2553L63.25 68.2058C62.8331 67.7895 62.604 67.2357 62.604 66.6472C62.604 66.0598 62.8325 65.5072 63.2471 65.0915L65.3171 63.0215C65.7467 62.5936 66.3098 62.3796 66.8728 62.3796C67.437 62.3796 68.0017 62.5941 68.4314 63.0238L71.6866 66.279C71.6871 66.279 71.6877 66.2796 71.6877 66.2802L72.4815 67.0734C72.8984 67.4897 73.1274 68.0434 73.1274 68.6325C73.1274 69.2216 72.8978 69.7748 72.4815 70.1911Z" fill="black"/>
<path d="M11.6729 33.3292C12.4899 34.1462 13.5765 34.5961 14.7321 34.5961C15.8912 34.5961 16.9784 34.1462 17.7936 33.3286C19.4798 31.6407 19.4798 28.8946 17.7931 27.2079L13.5916 23.007C14.6794 21.2385 15.966 19.5848 17.4284 18.0755C17.4597 18.05 17.4904 18.0233 17.52 17.9937C17.5565 17.9572 17.589 17.9178 17.6197 17.8772C17.6632 17.8331 17.7073 17.7885 17.7513 17.7438C19.4131 16.0826 21.2645 14.6365 23.2551 13.4397C23.3119 13.4177 23.3676 13.391 23.4215 13.3591C24.2136 12.8912 25.0294 12.4604 25.8493 12.0783C27.0229 11.5286 28.2452 11.0549 29.4831 10.671C29.548 10.6507 29.6095 10.6235 29.6687 10.5922C34.4372 9.14722 39.4476 8.96805 44.2828 10.057L42.6691 11.6707C41.851 12.4882 41.4004 13.5748 41.4004 14.7299C41.4004 15.8872 41.8515 16.9744 42.6691 17.7902C44.3564 19.4775 47.1019 19.4775 48.7887 17.7902L52.9849 13.5945C54.8822 14.7629 56.6443 16.1551 58.2313 17.7438C60.0218 19.5355 61.5636 21.5446 62.8143 23.715C63.3031 24.565 64.6947 27.5048 65.2977 29.3585C65.3134 29.4408 65.3389 29.5208 65.3731 29.598C65.3737 29.5997 65.3743 29.6009 65.3743 29.602C65.5981 30.3413 66.0411 30.2625 66.3907 30.2625H66.3919C66.6766 30.2619 66.9607 30.1534 67.1781 29.9366L72.4563 24.6601C74.4487 22.6678 75.6077 20.0226 75.7202 17.2104C75.8188 14.76 75.1172 12.3728 73.7314 10.3852L73.8427 10.2738C74.6794 9.43713 75.1404 8.32443 75.1404 7.14041C75.1404 5.95697 74.6794 4.84427 73.8427 4.00757L71.7785 1.94336C70.0506 0.216033 67.2402 0.216033 65.5123 1.94336L65.4125 2.04309C63.4225 0.635253 61.0278 -0.0843211 58.5589 0.00671279C55.7305 0.109923 53.0696 1.26959 51.0668 3.27234L46.1197 8.21948C40.642 6.72641 34.9086 6.76642 29.453 8.33429L24.6629 3.54312C22.6706 1.55139 20.0249 0.392302 17.2127 0.279815C14.7646 0.180663 12.3751 0.882842 10.3868 2.26865L10.2755 2.15674C8.54762 0.429412 5.73716 0.429992 4.00926 2.15674L1.94563 4.22095C1.10835 5.05765 0.647378 6.17035 0.647378 7.35379C0.647378 8.53781 1.10835 9.65051 1.94563 10.4872L2.04594 10.5875C0.63752 12.5781 -0.080894 14.9745 0.00840037 17.44C0.111031 20.2679 1.2707 22.9281 3.27345 24.9309L11.6729 33.3292ZM61.4163 12.2128C61.4314 12.2279 61.4465 12.2441 61.4621 12.2592L65.6294 16.4247C66.0063 16.8016 66.2139 17.3026 66.2139 17.8349C66.2139 18.3677 66.0069 18.8681 65.6294 19.2444L63.7988 21.075C62.7876 19.5361 61.6355 18.0842 60.3569 16.739L60.9292 16.1673C61.3641 15.7324 61.3641 15.0273 60.9292 14.593C60.4944 14.1581 59.7893 14.1581 59.355 14.593L58.7665 15.1815C57.4671 13.9958 56.0726 12.9254 54.5986 11.982L56.4819 10.0987C57.2595 9.32117 58.5253 9.32117 59.3028 10.0987L61.4163 12.2128ZM73.496 17.1211C73.4061 19.3726 72.4778 21.4901 70.8827 23.0853L66.8482 27.118C66.2765 25.6023 65.4375 23.9023 64.9823 23.0406L67.203 20.8193C68.0009 20.0226 68.4398 18.9632 68.4398 17.8354C68.4398 16.9872 68.1917 16.1777 67.729 15.4889C68.4856 15.3022 69.2029 14.9137 69.7932 14.3234L72.1258 11.9907C73.0878 13.5116 73.5696 15.294 73.496 17.1211ZM68.6457 2.87283C69.2104 2.87283 69.7746 3.08795 70.2043 3.51761L72.2691 5.58182C72.6854 5.99814 72.9144 6.5513 72.9144 7.14041C72.9144 7.72952 72.6854 8.28326 72.2691 8.69958L71.459 9.50961C71.4567 9.51193 71.4538 9.51425 71.4521 9.51657L68.2189 12.7491C67.3596 13.6085 65.961 13.6085 65.1017 12.7491L63.0375 10.6849C62.1776 9.82504 62.1776 8.42648 63.0369 7.56717L67.0871 3.51761C67.5167 3.08737 68.0809 2.87283 68.6457 2.87283ZM52.6417 4.84601C55.6354 1.85232 60.3314 1.41571 63.8081 3.64807L61.4627 5.99292C60.8759 6.57971 60.4886 7.29175 60.3007 8.04379C58.6563 6.90036 56.3729 7.05923 54.9077 8.52447L47.2156 16.216C46.3963 17.0353 45.0632 17.0353 44.2428 16.2154C43.8456 15.8194 43.6276 15.2917 43.6276 14.7299C43.6276 14.1697 43.8462 13.6421 44.2439 13.2443L52.6417 4.84601ZM10.101 19.5164C9.7241 19.1401 9.5171 18.6397 9.5171 18.1068C9.5171 17.5745 9.7241 17.0741 10.101 16.6972L16.4293 10.3701C17.2069 9.59253 18.4715 9.59253 19.249 10.3701L21.0674 12.1879C19.5291 13.1997 18.0766 14.3524 16.732 15.6315L16.1701 15.0696C15.7352 14.6353 15.0307 14.6353 14.5959 15.0696C14.1616 15.5045 14.1616 16.2096 14.5959 16.6445L15.1745 17.2226C13.9888 18.5231 12.9201 19.9205 11.9785 21.3939L10.101 19.5164ZM17.1239 2.50406C19.3754 2.59393 21.4942 3.52225 23.0893 5.11737L27.089 9.11764C25.6904 9.64529 24.3313 10.275 23.0267 10.9986L20.8233 8.79526C19.3772 7.34915 17.1332 7.17462 15.4946 8.27109C15.3033 7.49585 14.9049 6.78497 14.3257 6.2063L11.993 3.87421C13.5145 2.91226 15.298 2.43042 17.1239 2.50406ZM3.51988 5.7952L5.58408 3.73099C6.01374 3.30133 6.57792 3.08679 7.14268 3.08679C7.70744 3.08679 8.27162 3.30133 8.70185 3.73099L9.5084 4.53812C9.51246 4.54159 9.51652 4.54623 9.52058 4.54971L12.752 7.78055C13.1683 8.19745 13.3973 8.75061 13.3973 9.33972C13.3973 9.92883 13.1683 10.482 12.752 10.8983L10.6872 12.9625C9.82789 13.8218 8.42933 13.8224 7.56944 12.9625L3.51988 8.91296C3.10297 8.49664 2.87394 7.9429 2.87394 7.35379C2.87394 6.76526 3.10297 6.21152 3.51988 5.7952ZM3.65092 12.1925L5.99519 14.5368C6.58198 15.1236 7.29402 15.5103 8.04548 15.6988C7.55552 16.4004 7.29054 17.233 7.29054 18.1068C7.29054 19.234 7.73005 20.2939 8.52674 21.0906L16.2188 28.7821C17.0381 29.6014 17.0381 30.9351 16.2182 31.7555C15.8228 32.1516 15.2951 32.3696 14.7321 32.3696C14.1714 32.3696 13.6438 32.1516 13.2472 31.7549L4.8477 23.356C1.85401 20.3629 1.41798 15.668 3.65092 12.1925Z" fill="black"/>
<path d="M23.0015 41.9194L17.5377 46.7622C16.6755 47.5264 16.5955 48.8496 17.3597 49.7118L20.3702 53.1079C20.3737 53.1114 20.3766 53.1154 20.3795 53.1195C20.3824 53.1224 20.3847 53.1247 20.3876 53.127L23.2752 56.3845C23.6869 56.8495 24.262 57.0867 24.8396 57.0867C25.3324 57.0867 25.827 56.9139 26.2242 56.5619L31.688 51.7186C32.5508 50.955 32.6302 49.6312 31.866 48.769L25.9511 42.0968C25.1869 41.2346 23.8637 41.1552 23.0015 41.9194ZM24.3757 43.6763L26.5222 46.0971L21.2968 50.7972L19.1166 48.3376L24.3757 43.6763ZM24.85 54.8051L22.7742 52.4631L27.9991 47.7636L30.1091 50.1432L24.85 54.8051Z" fill="black"/>
<path d="M50.1995 19.8213L42.3619 26.7677C41.9102 27.1684 41.6417 27.721 41.6052 28.3234C41.5692 28.9258 41.7693 29.5063 42.17 29.958L47.8593 36.3756C48.2594 36.8272 48.8119 37.0957 49.4144 37.1322C49.4608 37.1351 49.5072 37.1363 49.553 37.1363C50.1056 37.1363 50.6326 36.9368 51.0489 36.5675L58.8866 29.6205C59.3382 29.2204 59.6067 28.6678 59.6432 28.0654C59.6798 27.4623 59.4791 26.8819 59.0785 26.4302L53.3897 20.0132C52.5629 19.0808 51.1319 18.995 50.1995 19.8213ZM57.4207 27.9314C57.4202 27.9454 57.4138 27.9511 57.4097 27.954V27.9546L49.5721 34.901C49.568 34.9045 49.5634 34.9115 49.5483 34.9097C49.5344 34.9092 49.5286 34.9022 49.5251 34.8987L43.8364 28.4811C43.8329 28.4776 43.8271 28.4707 43.8277 28.4573C43.8289 28.4434 43.8352 28.4376 43.8387 28.4342L51.6763 21.4877C51.6827 21.4819 51.6908 21.479 51.6984 21.479C51.7082 21.479 51.7169 21.4825 51.7233 21.4901L57.4126 27.9077C57.4161 27.9111 57.4219 27.9181 57.4207 27.9314Z" fill="black"/>
</g>
<defs>
<clipPath id="clip0">
<rect width="76" height="76" fill="white"/>
</clipPath>
</defs>
</svg>
