<svg width="90" height="90" viewBox="0 0 90 90" fill="none" xmlns="http://www.w3.org/2000/svg">
<g clip-path="url(#clip0)">
<path d="M51.3686 28.0696C50.8537 28.5845 50.8537 29.4193 51.3686 29.934C51.6259 30.1913 51.9634 30.3201 52.3007 30.3201C52.6381 30.3201 52.9756 30.1915 53.2329 29.934L54.6495 28.5173C55.1644 28.0025 55.1644 27.1677 54.6495 26.653C54.1347 26.1381 53.2999 26.1381 52.7852 26.653L51.3686 28.0696Z" fill="#0AA44F"/>
<path d="M49.8608 24.0288H51.864C52.5921 24.0288 53.1824 23.4385 53.1824 22.7104C53.1824 21.9824 52.5921 21.3921 51.864 21.3921H49.8608C49.1328 21.3921 48.5425 21.9824 48.5425 22.7104C48.5425 23.4385 49.1328 24.0288 49.8608 24.0288Z" fill="#0AA44F"/>
<path d="M19.6566 21.0829C22.3555 23.4231 25.7173 24.5811 29.0742 24.5811C32.7811 24.5809 36.4818 23.1685 39.2743 20.3761C44.5953 15.055 44.9058 6.43802 39.9811 0.758526C39.5828 0.29921 39.0058 0.023409 38.398 0.00178789C37.7889 -0.0212394 37.1951 0.214307 36.7653 0.644093L32.818 4.59144C32.3031 5.1063 32.3031 5.94091 32.818 6.45577C33.3329 6.97081 34.1676 6.97064 34.6823 6.45577L38.2902 2.84804C41.9954 7.48462 41.6452 14.2759 37.4096 18.5116C33.1738 22.747 26.3825 23.0972 21.7459 19.3922L30.2876 10.8503C30.8025 10.3354 30.8025 9.50066 30.2876 8.98597C29.7728 8.4711 28.938 8.4711 28.4233 8.98597L19.5419 17.8673C19.1122 18.2971 18.8782 18.8921 18.8998 19.4998C18.9214 20.1075 19.1972 20.6844 19.6566 21.0829Z" fill="#0AA44F"/>
<path d="M32.4496 13.8044C31.9348 14.3192 31.9348 15.154 32.4496 15.6687L33.7131 16.9322C33.9705 17.1896 34.308 17.3184 34.6453 17.3184C34.9826 17.3184 35.3201 17.1897 35.5775 16.9322C36.0923 16.4173 36.0923 15.5826 35.5775 15.0679L34.314 13.8044C33.7991 13.2895 32.9643 13.2895 32.4496 13.8044Z" fill="#0AA44F"/>
<path d="M29.0332 15.0715C28.3051 15.0715 27.7148 15.6618 27.7148 16.3899V18.1767C27.7148 18.9048 28.3051 19.4951 29.0332 19.4951C29.7613 19.4951 30.3516 18.9048 30.3516 18.1767V16.3899C30.3516 15.6618 29.7613 15.0715 29.0332 15.0715Z" fill="#0AA44F"/>
<path d="M35.2876 11.8113H37.0746C37.8027 11.8113 38.3929 11.221 38.3929 10.4929C38.3929 9.76483 37.8027 9.17456 37.0746 9.17456H35.2876C34.5595 9.17456 33.9692 9.76483 33.9692 10.4929C33.9692 11.221 34.5595 11.8113 35.2876 11.8113Z" fill="#0AA44F"/>
<path d="M77.8684 54.4892H75.1976C75.1469 54.2907 75.0903 54.0919 75.0219 53.892C79.3778 52.8813 82.288 50.2393 82.288 47.1173C82.288 45.03 80.9797 43.121 78.7047 41.7818C82.6449 37.4941 83.1754 31.4641 79.8201 28.109C79.1699 27.4588 78.4184 26.9562 77.5994 26.5944C77.5434 24.484 76.9576 22.4194 75.8949 20.6036C75.5271 19.9752 74.7194 19.7639 74.0912 20.1318C73.4628 20.4996 73.2517 21.3071 73.6194 21.9355C74.3339 23.1565 74.7755 24.5209 74.9177 25.9295C74.2995 25.8792 73.666 25.8908 73.0256 25.9637C72.5475 21.9955 69.1618 18.9094 65.0668 18.9094C62.7986 18.9094 60.7497 19.8581 59.2901 21.3771L57.9601 20.0471C59.761 18.1873 62.2797 17.0268 65.0668 17.0268C66.6799 17.0268 68.2804 17.423 69.6951 18.1728C70.3384 18.5136 71.1363 18.2686 71.4773 17.6252C71.8183 16.9818 71.5731 16.184 70.9298 15.8429C69.1361 14.8925 67.1088 14.3901 65.0668 14.3901C61.5525 14.3901 58.3741 15.8456 56.0959 18.1831L50.0139 12.1009C49.5871 11.6741 48.9988 11.4382 48.3927 11.4593C47.786 11.4785 47.2074 11.7513 46.8052 12.2078C43.1391 16.3703 42.0287 21.9652 43.4033 27.001C41.9016 27.4644 40.5567 28.6321 39.5401 30.3584C37.57 28.5416 35.1785 27.384 32.7495 27.082C30.9743 26.8611 29.3167 27.1119 27.899 27.7892C25.8048 26.2167 23.2076 25.2799 20.393 25.2799C13.4794 25.2799 7.8547 30.9046 7.8547 37.8182C7.8547 42.2133 10.1297 46.0844 13.5623 48.3233C13.2304 48.955 13.0033 49.6362 12.9052 50.3558C12.7078 51.8041 13.0504 53.2262 13.7994 54.4892H10.789C9.94791 54.4892 9.13334 54.8388 8.55396 55.4486C7.97054 56.0626 7.67294 56.8652 7.71601 57.7083C8.07478 64.7283 10.4297 71.4552 14.5261 77.1621C18.5389 82.7525 24.0095 87.0904 30.3468 89.7071C30.8179 89.9015 31.3213 90.0002 31.8437 90.0002H56.8136C57.3359 90.0002 57.8395 89.9015 58.3106 89.7071C64.6479 87.0906 70.1185 82.7527 74.1313 77.1621C78.2277 71.4552 80.5826 64.7281 80.9414 57.7083C80.9844 56.8652 80.6869 56.0626 80.1034 55.4486C79.5241 54.8388 78.7095 54.4892 77.8684 54.4892ZM65.0669 21.5463C67.919 21.5463 70.2586 23.7765 70.4369 26.5842C69.1285 27.0645 67.8487 27.7947 66.6774 28.7648L61.1537 23.2411C62.1356 22.199 63.5258 21.5463 65.0669 21.5463ZM64.5443 32.0111C64.712 32.4522 65.1026 32.7698 65.5686 32.8443C66.0342 32.9183 66.5046 32.7385 66.8015 32.3718C67.055 32.0586 67.3201 31.7631 67.5892 31.4938C70.8666 28.2165 75.5173 27.5347 77.9559 29.9733C80.3947 32.4123 79.7127 37.0626 76.4352 40.34C76.1707 40.6046 75.8798 40.8659 75.5707 41.1168C75.2046 41.4139 75.0251 41.8839 75.0998 42.3494C75.1745 42.8148 75.492 43.2049 75.9327 43.3726C78.2264 44.2453 79.6515 45.6802 79.6515 47.1171C79.6515 49.1969 76.7734 51.1159 72.9569 51.5809C72.5178 51.6343 72.1347 51.9045 71.937 52.3002C71.7392 52.6958 71.7531 53.1643 71.9739 53.5477C72.1578 53.8669 72.3086 54.1815 72.4292 54.4892H71.9184L63.6115 46.1823L71.0932 38.7005C71.6081 38.1856 71.6081 37.3508 71.0932 36.8362C70.5784 36.3213 69.7436 36.3213 69.2289 36.8362L61.7471 44.3179L55.6913 38.2621C55.2513 37.8221 54.6443 37.583 54.0198 37.6029C53.3961 37.6242 52.8032 37.9061 52.3927 38.3763C51.2368 39.7009 50.3417 41.1711 49.7003 42.721C49.2329 41.4153 48.9944 40.1178 49.0144 38.925C49.0308 37.9515 49.2487 36.2084 50.5249 35.4717C50.8923 35.2596 51.3258 35.1548 51.8049 35.1548C52.5719 35.1548 53.4557 35.4234 54.3726 35.95C54.7558 36.1701 55.2235 36.1837 55.6185 35.9861C56.0137 35.7885 56.2837 35.4063 56.3376 34.9679C56.8061 31.1614 58.7242 28.2911 60.7991 28.2911C62.2365 28.2907 63.6716 29.7163 64.5443 32.0111ZM67.9097 54.2095C67.7557 54.31 67.5982 54.4032 67.4377 54.4892H61.3803C60.8399 54.1998 60.3323 53.8288 59.8772 53.3737C57.6984 51.1948 57.4199 47.8246 59.0413 45.3412L67.9097 54.2095ZM41.6898 47.6771C37.6783 47.6771 34.3455 50.6381 33.7617 54.4892H31.8645C32.462 49.597 36.6389 45.7945 41.6898 45.7945C46.7407 45.7945 50.9176 49.597 51.5151 54.4892H49.6179C49.0341 50.638 45.7013 47.6771 41.6898 47.6771ZM46.934 54.4892H36.4457C36.9952 52.1008 39.1371 50.3138 41.6898 50.3138C44.2425 50.3138 46.3845 52.1008 46.934 54.4892ZM51.1897 47.527C51.437 44.988 52.4065 42.5042 54.1184 40.418L57.1492 43.4489C54.7127 46.7233 54.7779 51.2833 57.3442 54.4892H54.1688C53.9148 51.8431 52.834 49.4363 51.1897 47.527ZM48.4855 14.3013L59.9174 25.7333C57.1919 26.2244 54.9451 28.9749 54.0282 32.9041C53.4886 32.7202 52.9538 32.6005 52.4279 32.5466C52.0152 32.5044 51.6105 32.5067 51.2177 32.5481C50.189 29.5845 48.3368 27.5145 46.1328 26.9397C44.7503 22.7137 45.5148 17.9166 48.4855 14.3013ZM27.7185 31.0953C28.8551 29.9587 30.5264 29.4627 32.4244 29.6986C34.4448 29.9497 36.4552 30.9858 38.085 32.6158C38.3549 32.8856 38.6198 33.181 38.8729 33.4937C39.1696 33.8605 39.6402 34.0402 40.1058 33.9663C40.5716 33.892 40.9624 33.5742 41.1301 33.1331C42.0028 30.8383 43.4379 29.4127 44.8753 29.4127C46.442 29.4127 47.9184 31.05 48.7495 33.4903C47.2571 34.5851 46.4185 36.4735 46.3779 38.8805C46.3471 40.7135 46.7883 42.7136 47.6358 44.66C45.8653 43.7023 43.8401 43.1576 41.6898 43.1576C41.6752 43.1576 41.6608 43.1587 41.6462 43.1587L36.4453 37.9578C35.9305 37.4429 35.0957 37.4429 34.581 37.9578C34.0661 38.4727 34.0661 39.3075 34.581 39.8222L38.3666 43.6078C34.2534 44.74 30.9785 47.9171 29.715 51.9748C27.4888 51.1244 26.0227 49.7229 26.0227 48.2387C26.0227 46.8019 27.4476 45.367 29.7416 44.4942C30.1821 44.3265 30.4997 43.9365 30.5744 43.471C30.6491 43.0055 30.4697 42.5357 30.1035 42.2384C29.7941 41.9874 29.5032 41.726 29.239 41.4617C27.609 39.8316 26.5729 37.8212 26.3216 35.8008C26.0857 33.9032 26.5817 32.2321 27.7185 31.0953ZM17.4054 42.2884C15.9637 41.3219 15.0108 39.6806 15.0108 37.8182C15.0108 34.8505 17.4253 32.436 20.393 32.436C21.6483 32.436 22.8023 32.8702 23.7184 33.5933C23.6711 33.9235 23.6413 34.2604 23.6312 34.6043C22.2786 34.635 20.9901 35.0418 19.9107 35.8623C18.0293 37.2923 17.1621 39.7005 17.4054 42.2884ZM20.0237 46.904C20.4398 46.829 20.7947 46.5591 20.978 46.1781C21.1612 45.7971 21.1506 45.3512 20.9495 44.9794C19.4849 42.2713 19.7191 39.3199 21.5061 37.9617C22.1874 37.4437 23.0167 37.2072 23.9014 37.2204C24.3718 39.2611 25.4325 41.2335 26.969 42.9039C24.6942 44.243 23.386 46.1522 23.386 48.2393C23.386 50.9201 25.5334 53.2453 28.8978 54.4893H17.159C15.9769 53.4438 15.33 52.0903 15.5177 50.7122C15.7721 48.8459 17.5408 47.3512 20.0237 46.904ZM10.4914 37.8182C10.4914 32.3585 14.9332 27.9167 20.393 27.9167C22.3271 27.9167 24.1324 28.4756 25.6587 29.4386C25.2266 29.9051 24.8601 30.4193 24.5632 30.9747C23.3474 30.2303 21.9202 29.7993 20.393 29.7993C15.9714 29.7993 12.374 33.3965 12.374 37.8182C12.374 41.047 14.2929 43.8351 17.0496 45.1049C16.3755 45.4247 15.764 45.8137 15.2312 46.264C12.3904 44.5218 10.4914 41.3878 10.4914 37.8182ZM77.6411 62.7558H65.2149C64.4868 62.7558 63.8966 63.3461 63.8966 64.0742C63.8966 64.8023 64.4868 65.3925 65.2149 65.3925H76.983C75.914 69.0405 74.2336 72.4976 71.9892 75.6244C68.2639 80.8143 63.1859 84.8413 57.3043 87.2697C57.154 87.3318 56.9889 87.3633 56.8136 87.3633H31.8437C31.6685 87.3633 31.5034 87.3318 31.3531 87.2697C25.4715 84.8413 20.3935 80.8144 16.6682 75.6242C14.4238 72.4974 12.7434 69.0403 11.6744 65.3924H58.8868C59.6149 65.3924 60.2052 64.8021 60.2052 64.074C60.2052 63.3459 59.6149 62.7556 58.8868 62.7556H11.0163C10.6635 61.0565 10.4389 59.3249 10.3494 57.5734C10.342 57.427 10.4083 57.3247 10.4654 57.2646C10.5148 57.2127 10.6224 57.1257 10.789 57.1257H77.8684C78.035 57.1257 78.1428 57.2127 78.192 57.2646C78.2491 57.3247 78.3156 57.427 78.308 57.5734C78.2185 59.3251 77.9939 61.0567 77.6411 62.7558Z" fill="#0AA44F"/>
<path fill-rule="evenodd" clip-rule="evenodd" d="M77.8684 54.4887H75.1976H72.4292H71.9184H67.4377H61.3803H57.3442H54.1688H51.5151H49.6179H46.934H36.4457H33.7617H31.8645L28.8978 54.4888H17.159L13.7994 54.4887H10.789C9.94791 54.4887 9.13334 54.8383 8.55396 55.4481C7.97054 56.0621 7.67294 56.8647 7.71601 57.7077C8.07478 64.7277 10.4297 71.4547 14.5261 77.1616C18.5389 82.752 24.0095 87.0899 30.3468 89.7066C30.8179 89.901 31.3213 89.9996 31.8437 89.9996H56.8137C57.3359 89.9996 57.8395 89.901 58.3106 89.7066C64.6479 87.0901 70.1185 82.7522 74.1313 77.1616C78.2277 71.4547 80.5826 64.7276 80.9414 57.7077C80.9845 56.8647 80.6869 56.0621 80.1034 55.4481C79.5241 54.8383 78.7095 54.4887 77.8684 54.4887ZM65.2149 62.7553H77.6411C77.9939 61.0562 78.2185 59.3246 78.308 57.5729C78.3156 57.4265 78.2491 57.3242 78.192 57.2641C78.1428 57.2122 78.035 57.1252 77.8684 57.1252H10.789C10.6224 57.1252 10.5148 57.2122 10.4654 57.2641C10.4083 57.3242 10.342 57.4265 10.3494 57.5729C10.4389 59.3244 10.6635 61.056 11.0163 62.7551H58.8868C59.6149 62.7551 60.2052 63.3454 60.2052 64.0735C60.2052 64.8016 59.6149 65.3918 58.8868 65.3918H11.6744C12.7434 69.0398 14.4238 72.4969 16.6682 75.6237C20.3935 80.8138 25.4715 84.8408 31.3531 87.2692C31.5034 87.3313 31.6685 87.3627 31.8437 87.3627H56.8137C56.9889 87.3627 57.154 87.3313 57.3043 87.2692C63.1859 84.8408 68.2639 80.8138 71.9892 75.6239C74.2336 72.4971 75.914 69.04 76.983 65.392H65.2149C64.4869 65.392 63.8966 64.8017 63.8966 64.0737C63.8966 63.3456 64.4869 62.7553 65.2149 62.7553Z" fill="#F9223F"/>
<path d="M57.6291 13.0505C57.8209 13.0505 58.0151 13.0252 58.2078 12.9737L66.8606 10.6553H66.8608C67.9236 10.3704 68.616 9.33469 68.4717 8.24626C68.193 6.14497 67.2521 4.24073 65.7509 2.73956C64.2497 1.23839 62.3457 0.297604 60.2444 0.018991C59.1568 -0.124271 58.1204 0.567077 57.8351 1.6302L55.5168 10.2829C55.3113 11.0501 55.5238 11.8434 56.0854 12.4052C56.5062 12.8259 57.057 13.0505 57.6291 13.0505ZM60.2799 2.69403C61.6501 2.95243 62.8906 3.60809 63.8866 4.60389C64.8826 5.59987 65.538 6.84018 65.7964 8.21057L58.2607 10.2298L60.2799 2.69403Z" fill="#F9223F"/>
</g>
<defs>
<clipPath id="clip0">
<rect width="90" height="90" fill="white"/>
</clipPath>
</defs>
</svg>
