<svg width="90" height="90" viewBox="0 0 90 90" fill="none" xmlns="http://www.w3.org/2000/svg">
<g clip-path="url(#clip0)">
<path d="M1.31836 30.5231C2.04645 30.5231 2.63672 29.9329 2.63672 29.2048V18.9145C2.63672 15.1829 5.66332 12.147 9.38373 12.147H11.3825C12.1106 12.147 12.7009 11.5567 12.7009 10.8286C12.7009 10.1005 12.1106 9.51025 11.3825 9.51025H9.38373C4.20943 9.51025 0 13.729 0 18.9145V29.2048C0 29.9329 0.590273 30.5231 1.31836 30.5231Z" fill="#0AA44F"/>
<path d="M80.6163 9.5105H49.5886C48.8605 9.5105 48.2702 10.1008 48.2702 10.8289C48.2702 11.5569 48.8605 12.1472 49.5886 12.1472H80.6164C84.3369 12.1472 87.3635 15.1831 87.3635 18.9148V69.286C87.3635 73.0176 84.3369 76.0535 80.6164 76.0535H9.38373C5.66332 76.0535 2.63672 73.0176 2.63672 69.286V35.3396C2.63672 34.6115 2.04645 34.0213 1.31836 34.0213C0.590273 34.0213 0 34.6115 0 35.3396V69.286C0 74.4715 4.20943 78.6903 9.38373 78.6903H36.1491L33.4942 87.3637H27.6476C26.9195 87.3637 26.3292 87.9539 26.3292 88.682C26.3292 89.4101 26.9195 90.0004 27.6476 90.0004H62.3528C63.0809 90.0004 63.6711 89.4101 63.6711 88.682C63.6711 87.9539 63.0809 87.3637 62.3528 87.3637H56.5061L53.8513 78.6901H80.6166C85.7909 78.6901 90.0004 74.4713 90.0004 69.2858V18.9146C90 13.7292 85.7906 9.5105 80.6163 9.5105ZM36.2515 87.3637L38.9064 78.6901H51.0936L53.7485 87.3637H36.2515Z" fill="#0AA44F"/>
<path d="M9.42873 17.157H11.5585C12.2866 17.157 12.8769 16.5667 12.8769 15.8386C12.8769 15.1105 12.2866 14.5203 11.5585 14.5203H9.42873C7.13021 14.5203 5.26025 16.3936 5.26025 18.6959V64.0553C5.26025 66.3578 7.13021 68.2309 9.42873 68.2309H34.0045C34.7326 68.2309 35.3229 67.6407 35.3229 66.9126C35.3229 66.1845 34.7326 65.5942 34.0045 65.5942H9.42873C8.5841 65.5942 7.89697 64.9037 7.89697 64.0553V18.6959C7.89697 17.8473 8.5841 17.157 9.42873 17.157Z" fill="#0AA44F"/>
<path d="M83.4217 40.6587C82.6936 40.6587 82.1033 41.249 82.1033 41.9771V64.0552C82.1033 64.9038 81.4162 65.5941 80.5716 65.5941H77.7202C76.9921 65.5941 76.4019 66.1844 76.4019 66.9125C76.4019 67.6406 76.9921 68.2309 77.7202 68.2309H80.5716C82.8701 68.2309 84.74 66.3576 84.74 64.0552V41.9771C84.74 41.249 84.1498 40.6587 83.4217 40.6587Z" fill="#0AA44F"/>
<path d="M84.7398 18.6959C84.7398 16.3934 82.8699 14.5203 80.5714 14.5203H49.8086C49.0805 14.5203 48.4902 15.1105 48.4902 15.8386C48.4902 16.5667 49.0805 17.157 49.8086 17.157H80.5714C81.416 17.157 82.1031 17.8475 82.1031 18.6959V35.7678C82.1031 36.4959 82.6934 37.0862 83.4215 37.0862C84.1496 37.0862 84.7398 36.4959 84.7398 35.7678V18.6959Z" fill="#0AA44F"/>
<path d="M37.7351 34.9765C36.0713 35.2004 34.8168 36.6364 34.8168 38.3167V39.1054H32.3774C31.6494 39.1054 31.0591 39.6957 31.0591 40.4238C31.0591 41.1518 31.6494 41.7421 32.3774 41.7421H34.8168V42.5309C34.8168 44.2111 36.0713 45.6469 37.7351 45.8709L38.0773 45.9169V51.1157C38.0773 51.8437 38.6676 52.434 39.3957 52.434C40.1238 52.434 40.714 51.8437 40.714 51.1157V46.2718L47.9302 47.2434C48.248 49.1075 49.8735 50.531 51.825 50.531C54.0038 50.531 55.7762 48.7569 55.7762 46.5759V34.2712C55.7762 32.0903 54.0038 30.3162 51.825 30.3162C49.8735 30.3162 48.248 31.7396 47.9302 33.6038L37.7351 34.9765ZM47.874 44.5754L38.0868 43.2577C37.7258 43.2092 37.4535 42.8967 37.4535 42.5309V38.3167C37.4535 37.9507 37.7258 37.6383 38.0868 37.5896L47.874 36.272V44.5754ZM50.5107 34.2714C50.5107 33.5444 51.1003 32.9531 51.8252 32.9531C52.5501 32.9531 53.1397 33.5444 53.1397 34.2714V46.5761C53.1397 47.3031 52.5501 47.8945 51.8252 47.8945C51.1004 47.8945 50.5107 47.3031 50.5107 46.5761V34.2714Z" fill="#F9223F"/>
<path d="M19.2835 23.8848H27.1402L29.512 27.3029C29.7583 27.6579 30.1631 27.8696 30.5952 27.8696C31.0272 27.8696 31.4319 27.6578 31.6783 27.3029L34.0501 23.8848H41.907C44.0887 23.8848 45.8633 22.1099 45.8633 19.9285V3.95631C45.8633 1.77486 44.0885 0 41.9069 0H28.4285C27.7004 0 27.1101 0.590273 27.1101 1.31836C27.1101 2.04645 27.7004 2.63672 28.4285 2.63672H41.9069C42.6346 2.63672 43.2264 3.22875 43.2264 3.95631V19.9285C43.2264 20.6562 42.6344 21.2481 41.9069 21.2481H33.3602C32.9281 21.2481 32.5235 21.4599 32.277 21.8148L30.5952 24.2387L28.9131 21.8148C28.6668 21.4597 28.262 21.2481 27.8299 21.2481H19.2833C18.5555 21.2481 17.9637 20.6561 17.9637 19.9285V3.95631C17.9637 3.22875 18.5557 2.63672 19.2833 2.63672H22.2953C23.0234 2.63672 23.6137 2.04645 23.6137 1.31836C23.6137 0.590273 23.0234 0 22.2953 0H19.2833C17.102 0 15.3271 1.77486 15.3271 3.95631V19.9285C15.3271 22.1099 17.102 23.8848 19.2835 23.8848Z" fill="#0AA44F"/>
<path d="M11.2598 70.8293C10.5317 70.8293 9.94141 71.4196 9.94141 72.1477C9.94141 72.8758 10.5317 73.4661 11.2598 73.4661H16.6455C17.3736 73.4661 17.9639 72.8758 17.9639 72.1477C17.9639 71.4196 17.3736 70.8293 16.6455 70.8293H11.2598Z" fill="#0AA44F"/>
<path d="M21.8066 70.8293C21.0786 70.8293 20.4883 71.4196 20.4883 72.1477C20.4883 72.8758 21.0786 73.4661 21.8066 73.4661H27.1924C27.9205 73.4661 28.5108 72.8758 28.5108 72.1477C28.5108 71.4196 27.9205 70.8293 27.1924 70.8293H21.8066Z" fill="#0AA44F"/>
<path d="M29.6627 17.2893C29.92 17.5466 30.2575 17.6755 30.5949 17.6755C30.9322 17.6755 31.2697 17.5468 31.527 17.2893L35.8718 12.9445C37.414 11.4026 37.4152 8.89452 35.8746 7.35397C35.1288 6.60813 34.1372 6.19751 33.082 6.19751H33.0788C32.1637 6.19821 31.2959 6.50776 30.5947 7.07659C29.8933 6.50776 29.0257 6.19821 28.1106 6.19751H28.1074C27.0524 6.19751 26.0606 6.60813 25.3148 7.35397C23.7742 8.89452 23.7754 11.4024 25.3176 12.9445L29.6627 17.2893ZM27.1796 9.21831C27.4273 8.97046 27.7569 8.83405 28.1077 8.83405H28.1088C28.4607 8.83423 28.7919 8.97169 29.0413 9.22112L29.6629 9.84251C30.1777 10.3574 31.0124 10.3574 31.527 9.84251L32.1486 9.22095C32.3979 8.97169 32.729 8.83423 33.0809 8.83405H33.082C33.4329 8.83405 33.7624 8.97046 34.0101 9.21831C34.5227 9.73089 34.5215 10.566 34.0073 11.08L30.5947 14.4926L27.1821 11.08C26.6683 10.566 26.667 9.73089 27.1796 9.21831Z" fill="#F9223F"/>
<path d="M16.6455 52.6287H22.2956C23.0237 52.6287 23.614 52.0384 23.614 51.3103C23.614 50.5822 23.0237 49.9919 22.2956 49.9919H16.6455C15.9174 49.9919 15.3271 50.5822 15.3271 51.3103C15.3271 52.0384 15.9174 52.6287 16.6455 52.6287Z" fill="#0AA44F"/>
<path d="M16.6455 58.781H25.806C26.5341 58.781 27.1244 58.1907 27.1244 57.4626C27.1244 56.7346 26.5341 56.1443 25.806 56.1443H16.6455C15.9174 56.1443 15.3271 56.7346 15.3271 57.4626C15.3271 58.1907 15.9174 58.781 16.6455 58.781Z" fill="#0AA44F"/>
<path d="M75.2375 31.6436C75.2375 30.9155 74.6473 30.3252 73.9192 30.3252H68.269C67.541 30.3252 66.9507 30.9155 66.9507 31.6436C66.9507 32.3716 67.541 32.9619 68.269 32.9619H73.9192C74.6473 32.9619 75.2375 32.3716 75.2375 31.6436Z" fill="#0AA44F"/>
<path d="M73.9193 24.1729H64.7588C64.0307 24.1729 63.4404 24.7631 63.4404 25.4912C63.4404 26.2193 64.0307 26.8096 64.7588 26.8096H73.9193C74.6474 26.8096 75.2376 26.2193 75.2376 25.4912C75.2376 24.7631 74.6474 24.1729 73.9193 24.1729Z" fill="#0AA44F"/>
<path d="M43.6596 63.865H44.827C45.2497 63.865 45.6468 63.6623 45.8947 63.3199L48.1885 60.1528L50.4821 63.3199C50.7301 63.6621 51.127 63.865 51.5497 63.865H58.8204C59.5485 63.865 60.1388 63.2747 60.1388 62.5466C60.1388 61.8185 59.5485 61.2282 58.8204 61.2282H52.2228L49.2562 57.132C49.0081 56.7896 48.6112 56.5869 48.1885 56.5869C47.7657 56.5869 47.3686 56.7896 47.1208 57.132L44.1541 61.2284H43.6598C40.5291 61.2284 37.9824 63.7783 37.9824 66.9123C37.9824 70.0463 40.5293 72.5962 43.6598 72.5962H68.1264C71.2571 72.5962 73.8038 70.0463 73.8038 66.9123C73.8038 63.7783 71.2569 61.2284 68.1264 61.2284H64.9212C64.1932 61.2284 63.6029 61.8187 63.6029 62.5468C63.6029 63.2749 64.1932 63.8651 64.9212 63.8651H68.1264C69.8032 63.8651 71.1671 65.2322 71.1671 66.9123C71.1671 68.5924 69.803 69.9595 68.1264 69.9595H43.6596C41.9829 69.9595 40.619 68.5924 40.619 66.9123C40.619 65.2322 41.9829 63.865 43.6596 63.865Z" fill="#F9223F"/>
</g>
<defs>
<clipPath id="clip0">
<rect width="90" height="90" fill="white"/>
</clipPath>
</defs>
</svg>
