<svg width="76" height="76" viewBox="0 0 76 76" fill="none" xmlns="http://www.w3.org/2000/svg">
<path d="M71.5997 33.1008C71.2357 33.1008 70.8717 32.9468 70.6057 32.6948C70.3537 32.4288 70.1997 32.0649 70.1997 31.7009C70.1997 31.3369 70.3537 30.9729 70.6057 30.7069C71.1377 30.1889 72.0757 30.1889 72.5937 30.7069C72.8457 30.9729 72.9997 31.3369 72.9997 31.7009C72.9997 32.0789 72.8457 32.4288 72.5937 32.6948C72.3277 32.9468 71.9637 33.1008 71.5997 33.1008Z" fill="black"/>
<path d="M24.0001 58.3006C23.6361 58.3006 23.2721 58.1466 23.0061 57.8946C22.7541 57.6286 22.6001 57.2646 22.6001 56.9006C22.6001 56.5366 22.7541 56.1726 23.0061 55.9066C23.5381 55.3886 24.4621 55.3886 24.9941 55.9066C25.2461 56.1726 25.4001 56.5366 25.4001 56.9006C25.4001 57.2646 25.2461 57.6286 24.9941 57.8946C24.7281 58.1466 24.3641 58.3006 24.0001 58.3006Z" fill="black"/>
<path d="M71.5997 44.2999C70.8269 44.2999 70.1997 43.6727 70.1997 42.8999V37.2999C70.1997 36.5271 70.8269 35.8999 71.5997 35.8999C72.3725 35.8999 72.9997 36.5271 72.9997 37.2999V42.8999C72.9997 43.6727 72.3725 44.2999 71.5997 44.2999Z" fill="black"/>
<path d="M71.5997 27.4998C70.8269 27.4998 70.1997 26.8726 70.1997 26.0998V9.99985C70.1997 9.22705 70.8269 8.59985 71.5997 8.59985C72.3725 8.59985 72.9997 9.22705 72.9997 9.99985V26.0998C72.9997 26.8726 72.3725 27.4998 71.5997 27.4998Z" fill="black"/>
<path d="M24.0001 52.6993C23.2273 52.6993 22.6001 52.0721 22.6001 51.2993V34.7682C22.6001 33.9954 23.2273 33.3682 24.0001 33.3682C24.7729 33.3682 25.4001 33.9954 25.4001 34.7682V51.2993C25.4001 52.0721 24.7729 52.6993 24.0001 52.6993Z" fill="black"/>
<path d="M24.0001 69.4996C23.2273 69.4996 22.6001 68.8724 22.6001 68.0996V62.4996C22.6001 61.7268 23.2273 61.0996 24.0001 61.0996C24.7729 61.0996 25.4001 61.7268 25.4001 62.4996V68.0996C25.4001 68.8724 24.7729 69.4996 24.0001 69.4996Z" fill="black"/>
<path d="M42.3805 68.8109C41.6077 68.8109 40.9805 68.1837 40.9805 67.4109V45.6998C40.9805 44.927 41.6077 44.2998 42.3805 44.2998C43.1533 44.2998 43.7805 44.927 43.7805 45.6998V67.4109C43.7805 68.1837 43.1547 68.8109 42.3805 68.8109Z" fill="black"/>
<path d="M68.7999 47.0997C68.0271 47.0997 67.3999 46.4725 67.3999 45.6997C67.3999 44.9269 68.0271 44.2997 68.7999 44.2997C69.5713 44.2997 70.1999 43.6711 70.1999 42.8997C70.1999 42.127 70.8271 41.4998 71.5999 41.4998C72.3727 41.4998 72.9999 42.127 72.9999 42.8997C72.9999 45.2153 71.1155 47.0997 68.7999 47.0997Z" fill="black"/>
<path d="M68.7999 47.0998H24.0001C23.2273 47.0998 22.6001 46.4726 22.6001 45.6998C22.6001 44.927 23.2273 44.2998 24.0001 44.2998H68.7999C69.5727 44.2998 70.1999 44.927 70.1999 45.6998C70.1999 46.4726 69.5727 47.0998 68.7999 47.0998Z" fill="black"/>
<path d="M63.1999 22.5998H42.7096C41.9368 22.5998 41.3096 21.9726 41.3096 21.1998C41.3096 20.427 41.9368 19.7998 42.7096 19.7998H63.1999C63.9727 19.7998 64.5999 20.427 64.5999 21.1998C64.5999 21.9726 63.9727 22.5998 63.1999 22.5998Z" fill="black"/>
<path d="M63.1998 28.1999H44.2789C43.5061 28.1999 42.8789 27.5727 42.8789 26.7999C42.8789 26.0271 43.5061 25.3999 44.2789 25.3999H63.1998C63.9726 25.3999 64.5998 26.0271 64.5998 26.7999C64.5998 27.5727 63.9726 28.1999 63.1998 28.1999Z" fill="black"/>
<path d="M63.1997 33.7997H41.4928C40.72 33.7997 40.0928 33.1725 40.0928 32.3997C40.0928 31.627 40.72 30.9998 41.4928 30.9998H63.1997C63.9725 30.9998 64.5997 31.627 64.5997 32.3997C64.5997 33.1725 63.9725 33.7997 63.1997 33.7997Z" fill="black"/>
<path d="M57.6 16.9999H31.0001C30.2273 16.9999 29.6001 16.3727 29.6001 15.5999C29.6001 14.8271 30.2273 14.2 31.0001 14.2H57.6C58.3728 14.2 59 14.8271 59 15.5999C59 16.3727 58.3728 16.9999 57.6 16.9999Z" fill="black"/>
<path d="M44.2999 8.59997C43.5271 8.59997 42.8999 7.97278 42.8999 7.19998V4.39999C42.8999 3.6272 43.5271 3 44.2999 3C45.0727 3 45.6999 3.6272 45.6999 4.39999V7.19998C45.6999 7.97278 45.0727 8.59997 44.2999 8.59997Z" fill="black"/>
<path d="M17.0001 16.9942C16.2273 16.9942 15.6001 16.367 15.6001 15.5942V9.99985C15.6001 9.22705 16.2273 8.59985 17.0001 8.59985C17.7729 8.59985 18.4001 9.22705 18.4001 9.99985V15.5942C18.4001 16.367 17.7729 16.9942 17.0001 16.9942Z" fill="black"/>
<path d="M17.0001 11.4C16.2273 11.4 15.6001 10.7728 15.6001 10C15.6001 7.68444 17.4845 5.80005 19.8001 5.80005C20.5729 5.80005 21.2001 6.42725 21.2001 7.20004C21.2001 7.97284 20.5729 8.60004 19.8001 8.60004C19.0287 8.60004 18.4001 9.22863 18.4001 10C18.4001 10.7728 17.7729 11.4 17.0001 11.4Z" fill="black"/>
<path d="M68.7997 8.60004H19.7999C19.0271 8.60004 18.3999 7.97284 18.3999 7.20004C18.3999 6.42725 19.0271 5.80005 19.7999 5.80005H68.7997C69.5725 5.80005 70.1997 6.42725 70.1997 7.20004C70.1997 7.97284 69.5725 8.60004 68.7997 8.60004Z" fill="black"/>
<path d="M71.5999 11.4C70.8271 11.4 70.1999 10.7728 70.1999 10C70.1999 9.22863 69.5713 8.60004 68.7999 8.60004C68.0271 8.60004 67.3999 7.97284 67.3999 7.20004C67.3999 6.42725 68.0271 5.80005 68.7999 5.80005C71.1155 5.80005 72.9999 7.68444 72.9999 10C72.9999 10.7728 72.3727 11.4 71.5999 11.4Z" fill="black"/>
<path d="M8.37599 31.8418C7.78379 31.8418 7.23219 31.4624 7.04319 30.866C6.80799 30.1296 7.21539 29.3414 7.95179 29.1076C12.4668 27.667 17.3121 27.3828 21.9657 28.2872C22.7245 28.4342 23.2201 29.1692 23.0745 29.928C22.9275 30.6868 22.1953 31.1768 21.4337 31.0368C17.2379 30.2206 12.8714 30.4782 8.80298 31.776C8.66018 31.8194 8.51739 31.8418 8.37599 31.8418Z" fill="black"/>
<path d="M21.6994 31.0614C21.173 31.0614 20.6676 30.7632 20.4296 30.2522C20.1034 29.5522 20.4058 28.7192 21.1072 28.3916L34.1299 22.3199C34.8271 21.9923 35.6643 22.2947 35.9905 22.9975C36.3167 23.6975 36.0143 24.5305 35.3129 24.858L22.2902 30.9298C22.0998 31.0208 21.8982 31.0614 21.6994 31.0614Z" fill="black"/>
<path d="M37.0897 30.0642C36.5633 30.0642 36.0579 29.766 35.8199 29.2564C35.4937 28.5564 35.7961 27.722 36.4961 27.3958C37.6245 26.8694 37.1891 25.7858 37.0897 25.5744C36.9917 25.363 36.4471 24.3354 35.3117 24.859C34.6131 25.1866 33.7773 24.8842 33.4511 24.1814C33.1249 23.4814 33.4273 22.6484 34.1287 22.3208C36.5703 21.1798 38.7445 22.4986 39.6265 24.3914C40.5085 26.2828 40.1221 28.7944 37.6791 29.934C37.4901 30.0222 37.2885 30.0642 37.0897 30.0642Z" fill="black"/>
<path d="M23.9997 36.1688C23.4733 36.1688 22.9679 35.8706 22.7299 35.361C22.4037 34.6596 22.7061 33.8266 23.4061 33.5004L36.4961 27.3964C37.1961 27.0674 38.0305 27.3726 38.3567 28.0726C38.6829 28.774 38.3805 29.607 37.6805 29.9332L24.5905 36.0372C24.4001 36.1268 24.1985 36.1688 23.9997 36.1688Z" fill="black"/>
<path d="M29.2765 73C28.8859 73 28.4967 72.8376 28.2209 72.5198C27.7127 71.936 27.7743 71.0526 28.3567 70.5444L41.462 59.1288C42.0458 58.6206 42.9292 58.6822 43.4374 59.2646C43.9456 59.8484 43.884 60.7318 43.3016 61.24L30.1963 72.6556C29.9303 72.8866 29.6027 73 29.2765 73Z" fill="black"/>
<path d="M55.4859 73C55.1597 73 54.8321 72.8866 54.5675 72.6556L41.4621 61.24C40.8783 60.7318 40.8181 59.8484 41.3263 59.2646C41.8331 58.6822 42.7179 58.6206 43.3017 59.1288L56.4071 70.5444C56.9909 71.0526 57.0511 71.936 56.5429 72.5198C56.2657 72.8376 55.8779 73 55.4859 73Z" fill="black"/>
<path d="M4.39999 51.6444C3.6272 51.6444 3 51.0172 3 50.2444V35.8021C3 35.0293 3.6272 34.4021 4.39999 34.4021C5.17279 34.4021 5.79999 35.0293 5.79999 35.8021V50.2444C5.79999 51.0172 5.17279 51.6444 4.39999 51.6444Z" fill="black"/>
<path d="M4.39999 37.2016C3.6272 37.2016 3 36.5744 3 35.8016C3 32.695 4.99779 30.0028 7.97138 29.1012C8.71058 28.8758 9.49317 29.2958 9.71717 30.035C9.94117 30.7756 9.52257 31.5568 8.78338 31.7808C6.99838 32.3226 5.79999 33.9382 5.79999 35.8016C5.79999 36.5744 5.17279 37.2016 4.39999 37.2016Z" fill="black"/>
<path d="M10.0001 69.4995C9.22729 69.4995 8.6001 68.8723 8.6001 68.0995V37.3206C8.6001 36.5479 9.22729 35.9207 10.0001 35.9207C10.7729 35.9207 11.4001 36.5479 11.4001 37.3206V68.0995C11.4001 68.8723 10.7729 69.4995 10.0001 69.4995Z" fill="black"/>
<path d="M16.9997 30.5646C12.5631 30.5646 8.81396 26.8154 8.81396 22.3789C8.81396 17.9423 12.5631 14.1931 16.9997 14.1931C21.4363 14.1931 25.1855 17.9409 25.1855 22.3789C25.1855 26.8168 21.4363 30.5646 16.9997 30.5646ZM16.9997 16.9945C14.0807 16.9945 11.614 19.4613 11.614 22.3803C11.614 25.2993 14.0807 27.766 16.9997 27.766C19.9187 27.766 22.3855 25.2993 22.3855 22.3803C22.3855 19.4599 19.9187 16.9945 16.9997 16.9945Z" fill="black"/>
<path d="M17.0001 69.4995C16.2273 69.4995 15.6001 68.8723 15.6001 68.0995V50.244C15.6001 49.4712 16.2273 48.844 17.0001 48.844C17.7729 48.844 18.4001 49.4712 18.4001 50.244V68.0995C18.4001 68.8723 17.7729 69.4995 17.0001 69.4995Z" fill="black"/>
<path d="M7.19998 54.353C5.11259 54.353 3 52.9418 3 50.244C3 49.4712 3.6272 48.844 4.39999 48.844C5.17279 48.844 5.79999 49.4712 5.79999 50.244C5.79999 51.49 6.96618 51.553 7.19998 51.553C7.43378 51.553 8.59997 51.49 8.59997 50.244C8.59997 49.4712 9.22717 48.844 9.99997 48.844C10.7728 48.844 11.4 49.4712 11.4 50.244C11.4 52.9418 9.28737 54.353 7.19998 54.353Z" fill="black"/>
<path d="M20.5001 72.8849C19.2485 72.8849 18.0697 72.4649 17.1807 71.7005C16.1615 70.8241 15.6001 69.5445 15.6001 68.0997C15.6001 67.3269 16.2273 66.6997 17.0001 66.6997C17.7729 66.6997 18.4001 67.3269 18.4001 68.0997C18.4001 70.0289 20.2859 70.0849 20.5001 70.0849C20.7143 70.0849 22.6001 70.0289 22.6001 68.0997C22.6001 67.3269 23.2273 66.6997 24.0001 66.6997C24.7729 66.6997 25.4001 67.3269 25.4001 68.0997C25.4001 71.2413 22.9347 72.8849 20.5001 72.8849Z" fill="black"/>
<path d="M13.5001 72.8849C12.2485 72.8849 11.0697 72.4649 10.1807 71.7005C9.16149 70.8241 8.6001 69.5445 8.6001 68.0997C8.6001 67.3269 9.22729 66.6997 10.0001 66.6997C10.7729 66.6997 11.4001 67.3269 11.4001 68.0997C11.4001 70.0289 13.2859 70.0849 13.5001 70.0849C13.7143 70.0849 15.6001 70.0289 15.6001 68.0997C15.6001 67.3269 16.2273 66.6997 17.0001 66.6997C17.7729 66.6997 18.4001 67.3269 18.4001 68.0997C18.4001 71.2413 15.9347 72.8849 13.5001 72.8849Z" fill="black"/>
</svg>
