<svg width="90" height="90" viewBox="0 0 90 90" fill="none" xmlns="http://www.w3.org/2000/svg">
<path d="M74.6426 23.1279C74.2358 22.5243 73.4158 22.3635 72.8116 22.7704C72.208 23.1775 72.0477 23.9954 72.4546 24.5992C72.7004 24.9765 73.1064 25.1862 73.5248 25.1974C73.783 25.2045 74.0462 25.1357 74.2791 24.984C74.889 24.5866 75.0613 23.7697 74.6638 23.1598C74.6602 23.154 74.6466 23.1337 74.6426 23.1279ZM71.7219 52.9236L71.6926 52.9633C71.2675 53.5547 71.3973 54.3851 71.9886 54.8101C72.2129 54.9713 72.4701 55.053 72.726 55.0599C73.1446 55.0713 73.5601 54.8827 73.8238 54.5159L73.8252 54.5139C74.2645 53.9331 74.1493 53.1063 73.5687 52.6671C72.9879 52.2282 72.1607 52.3427 71.7219 52.9236ZM67.2342 17.1696C67.6348 16.5616 67.4668 15.744 66.8587 15.3434L66.8442 15.3337C66.2363 14.9333 65.4261 15.1063 65.0252 15.7141C64.6245 16.3222 64.8002 17.1446 65.4082 17.5451C65.6209 17.6854 65.8592 17.7558 66.0965 17.7622C66.5371 17.7743 66.9739 17.5649 67.2342 17.1696ZM64.2869 59.6229C63.6581 59.9901 63.4459 60.7974 63.813 61.426C64.0515 61.8349 64.4764 62.0675 64.9171 62.0794C65.1544 62.0859 65.3962 62.0283 65.6161 61.9L65.6313 61.891C66.26 61.524 66.4648 60.721 66.0976 60.0922C65.7306 59.4636 64.9158 59.256 64.2869 59.6229ZM78.7499 33.384C78.6204 32.6675 77.9341 32.1915 77.218 32.3214C76.5015 32.4509 76.0258 33.1368 76.1552 33.8533L76.1583 33.8707C76.2714 34.4958 76.808 34.9377 77.4187 34.9542C77.5082 34.9567 77.5989 34.95 77.6905 34.9335C78.407 34.8039 78.8826 34.118 78.7533 33.4016L78.7499 33.384ZM74.2736 48.6062L74.2513 48.6542C73.9554 49.3195 74.2548 50.0986 74.9201 50.3946C75.0829 50.4669 75.2522 50.5038 75.4197 50.5084C75.9328 50.5222 76.428 50.2338 76.6544 49.7395C76.9661 49.0828 76.6875 48.2975 76.0313 47.9843C75.3744 47.6709 74.5872 47.949 74.2736 48.6062ZM71.17 18.87C71.1638 18.8634 71.145 18.8446 71.1387 18.8383C70.6221 18.3256 69.7838 18.3254 69.271 18.8422C68.7581 19.359 68.7579 20.1904 69.2749 20.7034C69.5245 20.9614 69.8539 21.0955 70.1865 21.1045C70.5286 21.1138 70.8738 20.9908 71.1389 20.7341C71.6624 20.2279 71.6762 19.3933 71.17 18.87ZM68.349 56.646C68.3423 56.652 68.3227 56.6697 68.3162 56.6759C67.7823 57.171 67.7463 58.0094 68.2415 58.5432C68.4933 58.815 68.8321 58.9575 69.1743 58.9668C69.5044 58.9758 69.8377 58.8607 70.1002 58.6174L70.1023 58.6155C70.6462 58.1313 70.6945 57.298 70.2104 56.7541C69.7259 56.2102 68.8929 56.1621 68.349 56.646ZM78.8016 11.2155C71.5803 3.99417 61.9787 0.0170898 51.7655 0.0170898C37.2028 0.0170898 23.966 8.2794 17.5234 21.2228L17.0766 20.776C14.1739 17.8664 10.5906 19.6661 7.76098 21.8159C7.73426 21.8363 7.70824 21.8579 7.68258 21.8806C1.60296 27.0155 -1.24718 35.1639 0.515042 43.0749C0.673246 43.7854 1.37796 44.2327 2.08847 44.0751C2.79916 43.9167 3.24706 43.2122 3.0885 42.5015C1.6288 35.9486 3.77669 29.2102 8.50928 24.6822L22.5468 38.7199L20.7105 39.8521C18.4002 41.2766 17.4753 44.1283 18.511 46.6332C20.9561 52.5473 24.5157 57.7778 29.091 62.1794C33.2356 66.1671 38.0503 69.308 43.4009 71.5153C45.8963 72.5446 48.7415 71.6169 50.1645 69.3088L51.2978 67.4708L65.3342 81.5073C60.8062 86.2402 54.0672 88.3881 47.5146 86.9282C37.8495 84.7751 27.8923 78.9551 19.4776 70.5402C12.5141 63.5767 7.33365 55.583 4.49582 47.4232C4.25675 46.7355 3.50563 46.3717 2.81744 46.6109C2.12978 46.8502 1.76626 47.6014 2.00533 48.2891C4.97307 56.8225 10.3699 65.1616 17.6129 72.4045C26.3776 81.1692 36.7932 87.2411 46.9412 89.5019C55.6496 91.4485 65.2194 87.3519 70.0332 79.7183C71.3772 77.5385 71.0513 74.7511 69.2404 72.94L59.0603 62.7599C57.8631 61.5628 56.2125 60.9887 54.5302 61.1856C52.8489 61.3825 51.3748 62.3217 50.4862 63.7629L47.9201 67.9249C47.179 69.1269 45.7014 69.6117 44.4064 69.0777C39.3625 66.9971 34.8246 64.0368 30.9191 60.2792C26.6077 56.1315 23.2527 51.2011 20.9473 45.6256C20.4087 44.3226 20.8909 42.8384 22.0941 42.0965L26.2542 39.5314C27.6954 38.6429 28.6348 37.1689 28.8315 35.4872C29.0284 33.8055 28.4545 32.1544 27.2574 30.9571L19.4976 23.1972C21.0929 19.7826 23.1889 16.7017 25.6757 14.0264L26.7909 15.1416C27.0482 15.3991 27.3857 15.5278 27.723 15.5278C28.0604 15.5278 28.3979 15.3991 28.6554 15.1416C29.1702 14.6267 29.1702 13.7919 28.6552 13.2773L27.5411 12.1631C33.6942 6.45548 41.7807 2.99748 50.4468 2.67809V3.95532C50.4468 4.68341 51.0369 5.27369 51.7652 5.27369C52.4934 5.27369 53.0835 4.68341 53.0835 3.95532V2.6809C61.9055 3.00381 69.9174 6.55163 75.9736 12.1788L74.8727 13.2797C74.3578 13.7946 74.3578 14.6294 74.8729 15.1441C75.1302 15.4016 75.4677 15.5303 75.805 15.5303C76.1424 15.5303 76.4799 15.4016 76.7374 15.1441L77.8381 14.0431C83.4653 20.0996 87.0131 28.1112 87.3358 36.9332H86.0611C85.3328 36.9332 84.7427 37.5235 84.7427 38.2516C84.7427 38.9797 85.3328 39.5699 86.0611 39.5699H87.3362C87.0205 48.1968 83.6161 56.2823 77.8545 62.4765L76.7274 61.3494C76.2125 60.8345 75.3777 60.8344 74.863 61.3494C74.348 61.8643 74.348 62.6989 74.8628 63.2138L75.9877 64.3386C74.5259 65.694 72.9419 66.9407 71.2391 68.0557C70.63 68.4547 70.4595 69.2717 70.8585 69.8808C71.1115 70.2672 71.533 70.4771 71.9626 70.4771C72.2103 70.4771 72.4609 70.4073 72.6838 70.2614C83.5263 63.1608 89.9996 51.1944 89.9996 38.2514C90 28.0384 86.0231 18.4368 78.8016 11.2155ZM52.7307 65.1468C53.1936 64.3962 53.9612 63.907 54.8368 63.8046C55.7129 63.7023 56.5727 64.0009 57.1962 64.6244L67.3761 74.8043C68.3177 75.746 68.4884 77.1946 67.7922 78.3291C67.7909 78.3311 67.7899 78.333 67.7886 78.3349C67.5478 78.7255 67.2929 79.1034 67.0278 79.4717L52.72 65.1639L52.7307 65.1468ZM25.3932 32.8218C26.0169 33.4453 26.3155 34.3052 26.2131 35.181C26.1108 36.0567 25.6215 36.8244 24.8708 37.287L24.8536 37.2976L10.5447 22.9885C10.9129 22.7233 11.2912 22.4682 11.682 22.2274C12.8172 21.5271 14.2692 21.6972 15.2119 22.6403L25.3932 32.8218ZM79.1663 38.9955L79.1669 38.9779C79.1671 38.971 79.1672 38.9642 79.1672 38.9573C79.1676 38.9505 79.1677 38.9436 79.1679 38.9368L79.1685 38.9192C79.1881 38.1913 78.6142 37.5854 77.8863 37.5657C77.1584 37.546 76.5525 38.1201 76.5328 38.8478L76.5322 38.8654C76.5321 38.8723 76.5319 38.8791 76.5319 38.886C76.5315 38.8928 76.5314 38.8997 76.5312 38.9065L76.5308 38.9241C76.5111 39.652 77.0851 40.2579 77.813 40.2776C78.5409 40.2973 79.1467 39.7234 79.1663 38.9955ZM58.8281 46.1989H58.8316C59.5581 46.1989 60.1481 45.6109 60.15 44.884L60.1565 42.3524H60.5271C61.2553 42.3524 61.8454 41.7621 61.8454 41.034C61.8454 40.3059 61.2553 39.7157 60.5271 39.7157H60.1634L60.1825 32.2396C60.1876 31.5217 59.5813 30.9144 58.8641 30.9177H57.3911C56.9188 30.9177 56.4827 31.1703 56.2476 31.5801L51.1995 40.378C50.9654 40.786 50.9664 41.2877 51.2021 41.6948C51.4379 42.1017 51.8726 42.3524 52.343 42.3524H57.5196L57.5131 44.8772C57.5113 45.6053 58.1002 46.1969 58.8281 46.1989ZM54.6195 39.7157L57.5396 34.6264L57.5266 39.7157H54.6195ZM77.1399 45.5147C77.7606 45.5314 78.3238 45.106 78.4616 44.4802C78.6274 43.7731 78.1897 43.0647 77.4825 42.8968C76.7745 42.7289 76.0634 43.1665 75.8952 43.875L75.8831 43.9292C75.7354 44.6421 76.1937 45.3398 76.9067 45.4877C76.9849 45.5037 77.0628 45.5126 77.1399 45.5147ZM77.2283 28.0655C76.965 27.3866 76.2011 27.0498 75.5225 27.3131C74.8437 27.5765 74.5067 28.3402 74.7702 29.0191C74.7734 29.0277 74.7834 29.0527 74.7869 29.0611C74.9926 29.5596 75.4698 29.8681 75.9771 29.8819C76.1547 29.8866 76.3361 29.8553 76.5106 29.7832C77.1837 29.5057 77.5068 28.741 77.2292 28.0678L77.2283 28.0655ZM25.3772 45.7557C25.5372 46.3253 26.048 46.702 26.6101 46.7171C26.7385 46.7206 26.8696 46.7051 26.9999 46.6689C27.7014 46.4736 28.1117 45.7468 27.9164 45.0454C27.913 45.0336 27.9048 45.005 27.9013 44.9934C27.6866 44.2976 26.9487 43.9076 26.2528 44.1222C25.562 44.3354 25.1728 45.0644 25.3772 45.7557ZM27.4434 50.9306C27.6756 51.36 28.1113 51.6081 28.5666 51.6204C28.7897 51.6263 29.0177 51.5757 29.2284 51.462C29.8662 51.1176 30.1051 50.3222 29.7662 49.6829C29.4359 49.0432 28.652 48.7859 28.006 49.1083C27.3544 49.4335 27.0899 50.225 27.4151 50.8766C27.4216 50.8896 27.4365 50.9179 27.4434 50.9306ZM25.5263 40.2117L25.5105 40.213L25.7233 40.1999L25.5263 40.2117ZM50.1634 46.1989C50.8896 46.1989 51.4793 45.6112 51.4816 44.8845C51.4839 44.1565 50.8954 43.5644 50.1673 43.5621L45.9374 43.5491C46.7074 42.5651 47.7944 41.1135 49.2408 39.047C50.2455 37.6114 50.7404 36.5277 50.9184 35.1246C51.2531 32.4873 48.6802 30.3043 46.2758 30.3043C44.0573 30.3043 42.1369 31.8826 41.7099 34.057C41.5696 34.7714 42.0351 35.4645 42.7495 35.6048C43.4652 35.7449 44.1569 35.2794 44.2972 34.5652C44.4821 33.6241 45.3141 32.941 46.2758 32.941C47.5369 32.941 48.5392 34.0572 48.2478 35.2234C48.0816 35.8882 47.6891 36.6655 47.0806 37.5349C43.9311 42.0348 42.5549 43.5066 42.5434 43.5187C41.7373 44.3736 42.2003 46.186 43.492 46.1783L50.1589 46.1987H50.1634V46.1989ZM33.3676 21.6146C33.8647 21.0825 33.8362 20.2483 33.3041 19.7512C32.7719 19.2542 31.9378 19.2827 31.4407 19.8148L31.4092 19.8492C30.924 20.3922 30.9669 21.2298 31.5097 21.715C31.7528 21.9323 32.0533 22.0437 32.3544 22.0518C32.7265 22.0618 33.0997 21.9145 33.3676 21.6146ZM37.3972 16.4097C36.9727 15.8182 36.1493 15.6825 35.5575 16.107C35.5533 16.11 35.5348 16.1233 35.5308 16.1263C34.9466 16.5558 34.8259 17.3712 35.2522 17.958C35.5012 18.3011 35.8876 18.4871 36.2835 18.4978C36.5642 18.5054 36.8498 18.4247 37.0944 18.2493C37.686 17.8249 37.8217 17.0012 37.3972 16.4097ZM31.4735 56.0306C31.7741 56.0387 32.0793 55.9446 32.3326 55.7418C32.9009 55.2867 32.9928 54.457 32.5377 53.8885C32.5254 53.8732 32.5128 53.8579 32.4999 53.8428C32.0271 53.2889 31.1947 53.2237 30.6412 53.6964C30.0922 54.1652 30.0231 54.9873 30.483 55.541C30.7352 55.8536 31.101 56.0205 31.4735 56.0306ZM30.3904 25.6617L30.4118 25.6255C30.776 24.9951 30.563 24.1844 29.9326 23.82C29.3017 23.4558 28.4982 23.6669 28.134 24.2974L28.1322 24.3002C27.7563 24.9237 27.9568 25.7341 28.5805 26.1101C28.7826 26.2319 29.0041 26.2933 29.2244 26.2992C29.6837 26.3115 30.1362 26.0832 30.3904 25.6617ZM36.0759 57.4328C36.072 57.4294 36.0544 57.4152 36.0504 57.412C35.4844 56.9571 34.6598 57.0485 34.2031 57.613C33.7462 58.1774 33.8348 59.0073 34.3975 59.4662L34.4014 59.4694C34.6369 59.6631 34.9192 59.7614 35.2021 59.7691C35.5947 59.7797 35.9882 59.6155 36.2569 59.2885C36.7194 58.726 36.6384 57.8953 36.0759 57.4328ZM42.0781 13.9582C41.779 13.2945 40.9983 12.9992 40.3346 13.2983C40.3293 13.3006 40.3084 13.3103 40.3031 13.3128C39.6464 13.6191 39.3681 14.3947 39.6703 15.0535C39.8863 15.5246 40.3493 15.8059 40.8371 15.8191C41.0315 15.8243 41.23 15.7871 41.4183 15.702C42.082 15.4028 42.3777 14.622 42.0781 13.9582ZM40.2489 60.1947C39.6063 59.8514 38.8079 60.094 38.4648 60.7361C38.1216 61.3782 38.364 62.1772 39.0062 62.5201L39.0369 62.5363C39.2196 62.6309 39.4138 62.6785 39.6063 62.6838C40.0957 62.6969 40.5733 62.4357 40.8136 61.9717C41.1483 61.325 40.8955 60.5294 40.2489 60.1947ZM62.6767 14.4777C62.9441 13.8032 62.612 13.038 61.9391 12.7671L61.9353 12.7655C61.2601 12.4915 60.4915 12.8162 60.2177 13.4908C59.9436 14.1655 60.2685 14.9344 60.943 15.2084C60.9486 15.2107 60.9704 15.2195 60.9762 15.2216C61.1217 15.2784 61.2708 15.3074 61.4183 15.3114C61.9551 15.326 62.467 15.0068 62.6767 14.4777ZM43.2605 62.9618C43.0599 63.6618 43.4645 64.3918 44.1643 64.5924L44.1812 64.5973C44.2904 64.6286 44.4001 64.6451 44.5082 64.648C45.0935 64.6638 45.6342 64.2816 45.8035 63.6908C46.0042 62.9909 45.591 62.2585 44.891 62.0578C44.1909 61.8569 43.461 62.2621 43.2605 62.9618ZM56.3445 13.8587C56.985 13.8761 57.5595 13.4233 57.676 12.7733C57.8047 12.0566 57.3278 11.3714 56.6113 11.2429C56.6092 11.2426 56.5901 11.2392 56.5883 11.2389C55.8722 11.1134 55.1986 11.5934 55.0718 12.3092C54.9449 13.025 55.4302 13.71 56.1457 13.8383C56.2125 13.8503 56.2787 13.857 56.3445 13.8587ZM45.8364 14.1145C45.9459 14.1175 46.0573 14.1069 46.1688 14.0815C46.8784 13.9189 47.3221 13.2119 47.1597 12.5022C46.9974 11.7924 46.2911 11.3494 45.5804 11.5112L45.5634 11.515C44.8537 11.6775 44.4185 12.3827 44.5809 13.0925C44.7179 13.6909 45.248 14.0987 45.8364 14.1145ZM51.1367 13.4571C51.1401 13.4571 51.1519 13.4567 51.1552 13.4565C51.881 13.4337 52.4472 12.828 52.427 12.1021C52.4064 11.3762 51.8003 10.8015 51.0726 10.8212C51.0692 10.8212 51.0575 10.8216 51.0541 10.8217C50.3283 10.8446 49.7621 11.4503 49.7823 12.1761C49.802 12.8791 50.3726 13.4383 51.0677 13.4571C51.0905 13.4578 51.1135 13.4578 51.1367 13.4571Z" fill="#F9223F"/>
<path fill-rule="evenodd" clip-rule="evenodd" d="M25.5263 40.2117L25.5105 40.2129L25.7233 40.1999L25.5263 40.2117Z" fill="#0AA44F"/>
<path fill-rule="evenodd" clip-rule="evenodd" d="M17.5234 21.2228L17.0766 20.776C14.1739 17.8664 10.5906 19.6661 7.76098 21.8159C7.73426 21.8363 7.70824 21.8579 7.68258 21.8806C1.60296 27.0155 -1.24718 35.1639 0.515042 43.0749C0.673246 43.7854 1.37796 44.2327 2.08847 44.0751C2.79916 43.9167 3.24706 43.2122 3.0885 42.5015C1.6288 35.9486 3.77669 29.2102 8.50928 24.6822L22.5468 38.7199L20.7105 39.8521C18.4002 41.2766 17.4753 44.1283 18.511 46.6332C20.9561 52.5473 24.5157 57.7779 29.091 62.1794C33.2356 66.1671 38.0503 69.308 43.4009 71.5153C45.8963 72.5446 48.7415 71.6169 50.1645 69.3088L51.2978 67.4709L65.3342 81.5073C60.8062 86.2402 54.0672 88.3881 47.5146 86.9282C37.8495 84.7751 27.8923 78.9551 19.4776 70.5402C12.5141 63.5767 7.33365 55.583 4.49582 47.4232C4.25675 46.7355 3.50563 46.3717 2.81744 46.6109C2.12978 46.8501 1.76626 47.6014 2.00533 48.2891C4.97307 56.8225 10.3699 65.1616 17.6129 72.4045C26.3776 81.1692 36.7932 87.2411 46.9412 89.5019C55.6496 91.4485 65.2194 87.3519 70.0332 79.7183C71.3772 77.5385 71.0513 74.7511 69.2404 72.94L59.0603 62.7599C57.8631 61.5628 56.2125 60.9887 54.5302 61.1856C52.8489 61.3825 51.3748 62.3217 50.4862 63.7629L47.9201 67.9249C47.179 69.1269 45.7014 69.6117 44.4064 69.0777C39.3625 66.9971 34.8246 64.0368 30.9191 60.2792C26.6077 56.1315 23.2527 51.2011 20.9473 45.6256C20.4087 44.3226 20.8909 42.8384 22.0941 42.0965L26.2542 39.5314C27.6954 38.6429 28.6348 37.1689 28.8315 35.4872C29.0284 33.8055 28.4545 32.1544 27.2574 30.9571L19.4976 23.1972L17.5234 21.2228ZM54.8368 63.8046C53.9612 63.907 53.1936 64.3962 52.7307 65.1468L52.72 65.1639L67.0278 79.4717C67.2929 79.1035 67.5478 78.7255 67.7886 78.3349L67.7922 78.3291C68.4884 77.1946 68.3177 75.746 67.3761 74.8043L57.1962 64.6244C56.5727 64.0009 55.7129 63.7023 54.8368 63.8046ZM26.2131 35.181C26.3155 34.3052 26.0169 33.4453 25.3932 32.8218L15.2119 22.6403C14.2692 21.6972 12.8172 21.5271 11.682 22.2274C11.2912 22.4682 10.9129 22.7233 10.5447 22.9885L24.8536 37.2976L24.8708 37.287C25.6215 36.8244 26.1108 36.0567 26.2131 35.181Z" fill="#0AA44F"/>
</svg>
